<?xml version="1.0" encoding="UTF-8" standalone="no"?><!DOCTYPE svg PUBLIC "-//W3C//DTD SVG 1.1//EN" "http://www.w3.org/Graphics/SVG/1.1/DTD/svg11.dtd"><svg width="100%" height="100%" viewBox="0 0 8058 2034" version="1.1" xmlns="http://www.w3.org/2000/svg" xmlns:xlink="http://www.w3.org/1999/xlink" xml:space="preserve" xmlns:serif="http://www.serif.com/" style="fill-rule:evenodd;clip-rule:evenodd;stroke-miterlimit:10;"><g><rect x="3244.51" y="63.29" width="110.844" height="969.852" style="fill:#afafa5;"/><path d="M3473.09,672.92c-0,-256.316 167.641,-374.076 346.371,-374.076c178.734,0 346.375,117.76 346.375,374.076c-0,256.318 -167.641,374.089 -346.375,374.089c-178.73,-0 -346.371,-117.771 -346.371,-374.089m346.371,279.866c124.698,0 239.694,-85.89 239.694,-279.866c0,-193.963 -114.996,-281.259 -239.694,-281.259c-126.076,0 -241.072,87.296 -241.072,281.259c-0,193.976 114.996,279.866 241.072,279.866" style="fill:#afafa5;fill-rule:nonzero;"/><path d="M4333.49,864.122l0,-461.373l-116.378,-0l0,-90.057l116.378,0l0,-180.112l110.844,-0l0,180.112l142.701,0l-0,90.057l-142.701,-0l0,440.594c0,77.587 26.323,108.062 103.907,108.062c18.017,-0 30.475,-0 49.884,-2.761l-0,85.89c-24.941,5.545 -51.263,8.319 -80.359,8.319c-108.072,0 -184.276,-45.72 -184.276,-178.733" style="fill:#afafa5;fill-rule:nonzero;"/><path d="M5004.07,952.789c120.531,0 203.661,-72.04 211.98,-196.737l1.392,-443.365l110.834,-0l-1.382,720.461l-110.844,-0l-0,-141.319l-2.774,-0c-12.469,48.488 -81.737,155.18 -247.999,155.18c-142.711,-0 -257.697,-77.596 -257.697,-289.575l1.381,-444.747l110.833,-0l-1.381,422.577c-0,137.167 58.189,217.525 185.657,217.525" style="fill:#afafa5;fill-rule:nonzero;"/><path d="M5440.49,828.1l99.754,-0c13.862,98.375 103.918,131.621 198.127,131.621c98.375,-0 177.341,-36.02 177.341,-126.076c0,-70.661 -48.491,-94.22 -126.076,-112.226l-135.776,-31.867c-127.469,-30.485 -191.203,-95.601 -191.203,-193.973c0.003,-127.458 108.073,-196.737 271.561,-196.737c162.099,-0 268.776,69.279 277.095,213.372l-94.209,-0c-15.242,-94.223 -83.132,-126.09 -182.886,-126.09c-105.299,0 -163.488,34.641 -163.488,109.455c-0,55.426 33.249,90.056 120.531,109.462l134.395,31.856c119.149,27.715 203.674,73.432 203.674,195.366c-0,157.946 -144.093,214.754 -292.349,214.754c-164.87,-0 -289.567,-67.898 -296.491,-218.917" style="fill:#afafa5;fill-rule:nonzero;"/><path d="M1751.87,314.004c15.322,0 27.682,-0.165 40.03,0.035c43.57,0.668 80.648,38.925 84.723,82.261c4.051,42.891 -23.327,81.839 -65.338,94.621c-43.269,13.174 -88.143,-6.424 -107.517,-47.799c-10.376,-22.159 -11.467,-45.608 -3.527,-68.724c4.463,-13.014 3.607,-23.871 -4.901,-34.849c-52.799,-68.144 -111.892,-129.585 -184.42,-176.35c-183.031,110.545 -348.024,369.655 -348.836,653.744c-0.802,277.972 159.613,530.405 306.923,625.327c1.438,-5.679 3.72,-10.457 3.699,-15.232c-0.211,-35.953 -2.194,-71.951 -1.181,-107.862c5.165,-182.817 64.624,-346.652 175.404,-491.723c86.392,-113.15 194.462,-199.855 324.202,-258.723c162.155,-73.576 331.322,-93.854 506.624,-63.756c43.892,7.539 46.941,10.812 54.638,54.146c14.852,83.745 14.462,167.943 6.801,252.31c-0.989,10.924 -2.304,21.814 -3.573,33.66c10.253,9.754 20.942,18.527 29.996,28.76c37.701,42.534 25.953,127.492 -45.741,146.265c-41.988,10.988 -86.203,-8.998 -104.476,-47.31c-19.596,-41.1 -8.004,-88.734 28.305,-114.476c8.973,-6.358 18.861,-11.413 29.24,-17.603c8.773,-18.673 8.84,-39.75 10.611,-60.094c5.556,-63.622 3.517,-127.166 -5.59,-190.422c-3.463,-24.064 -5.879,-27.258 -30.742,-31.234c-71.508,-11.424 -143.604,-11.958 -215.109,-3.196c-113.85,13.952 -220.742,49.715 -318.85,110.467c-142.901,88.474 -248.868,208.717 -317.257,362.63c-55.805,125.598 -74.167,256.92 -64.913,392.993c0.401,5.847 4.185,11.459 7.894,21.033c11.336,-11.958 19.93,-20.542 27.982,-29.595c70.615,-79.434 152.764,-144.36 247.465,-192.437c178.843,-90.815 367.194,-117.792 564.131,-78.611c188.164,37.444 345.595,129.395 473.084,272.373c22.961,25.753 43.692,53.612 63.959,81.583c21.589,29.817 21.378,37.535 1.259,66.941c-42.391,61.941 -91.15,118.283 -148.959,166.438c-11.681,9.732 -23.204,19.831 -35.82,28.249c-15.365,10.256 -20.678,21.413 -18.34,41.364c5.088,43.403 -19.328,78.779 -59.381,94.022c-48.601,18.471 -103.484,-10.021 -117.858,-61.206c-14.019,-49.905 15.544,-100.925 65.361,-111.948c17.715,-3.92 35.83,-5.211 52.954,2.638c11.448,5.256 21.469,3.687 30.977,-3.685c68.123,-52.778 129.973,-111.59 177.018,-184.589c0.711,-1.09 0.701,-2.662 1.425,-5.633c-11.769,-22.324 -29.128,-41.966 -46.287,-61.698c-173.889,-200.021 -394.029,-294.73 -657.94,-281.301c-173.6,8.839 -328.168,71.617 -462.095,183.829c-58.78,49.237 -109.409,105.457 -152.342,168.846c-48.291,71.305 -102.784,137.222 -168.734,193.129c-122.057,103.45 -261.16,170.76 -419.862,194.142c-302.627,44.614 -559.522,-45.952 -770.545,-266.339c-29.462,-30.777 -52.676,-67.486 -79.311,-101.047c-14.318,-18.038 -12.749,-34.86 -0.176,-52.989c31.6,-45.573 65.281,-89.498 105.598,-127.68c32.078,-30.375 65.816,-59.001 100.489,-89.887c-0,-9.979 -0.099,-22.17 0.013,-34.363c0.401,-41.677 34.181,-80.036 70.37,-86.861c37.623,-7.092 68.544,3.386 92.239,32.848c23.359,29.037 26.02,69.969 6.79,101.291c-19.817,32.289 -49.279,47.855 -87.359,44.058c-13.53,-1.336 -26.758,-5.799 -42.012,-9.262c-73.878,53.756 -137.513,118.013 -190.01,192.795c103.172,173.52 342.898,347.384 647.806,351.684c265.492,3.741 510.921,-135.162 625.552,-301.191c-5.823,-9.353 -14.61,-5.064 -22.258,-4.442c-81.761,6.636 -162.911,3.787 -243.579,-12.503c-108.351,-21.87 -208.963,-61.92 -301.593,-122.56c-108.27,-70.882 -196.736,-160.97 -263.72,-271.504c-94.599,-156.084 -135.263,-325.686 -122.37,-507.813c2.25,-31.678 6.115,-63.288 10.345,-94.765c4.909,-36.611 12.894,-44.673 49.125,-50.172c92.071,-13.976 184.321,-18.787 276.838,-3.942c4.009,0.644 8.207,0.077 13.741,0.077c7.905,-8.762 15.566,-18.551 24.519,-26.934c28.08,-26.322 70.425,-32.134 104.184,-15.01c35.552,18.06 53.569,55.616 46.856,97.672c-5.847,36.589 -33.259,65.827 -70.383,72.441c-36.955,6.582 -68.509,-4.086 -91.448,-34.962c-6.547,-8.818 -11.368,-18.941 -16.98,-28.46c-57.834,-19.074 -164.367,-20.063 -270.992,-2.493c-10.411,7.282 -10.355,19.016 -11.782,29.716c-18.615,139.75 -5.946,276.238 46.121,407.781c50.851,128.505 129.181,237.802 236.231,325.597c117.134,96.08 250.65,155.05 401.178,175.904c60.738,8.418 121.231,8.773 182.039,3.875c6.814,-0.545 13.562,-2.226 20.275,-3.674c1.068,-0.236 1.825,-1.994 2.827,-3.162c4.732,-10.601 -4.108,-14.398 -10.142,-19.475c-67.063,-56.252 -127.893,-118.094 -176.462,-191.537c-81.772,-123.66 -129.494,-258.734 -141.775,-406.744c-9.867,-118.941 3.495,-234.919 41.455,-347.711c50.56,-150.239 136.185,-277.328 257.718,-379.532c23.249,-19.54 48.537,-36.642 72.23,-55.672c20.699,-16.614 40.832,-15.066 60.54,0.267c32.712,25.443 66.808,49.561 96.804,77.954c34.048,32.233 64.29,68.488 96.034,103.137c6.515,7.095 12.37,14.799 19.864,23.839m903.314,1495.39c0.746,-16.625 -12.851,-31.699 -30.154,-33.436c-15.577,-1.561 -32.201,13.594 -33.112,30.183c-0.903,16.392 12.827,31.614 30.218,33.495c15.556,1.681 32.3,-13.653 33.048,-30.242m-869.609,-1374.08c17.669,-0.911 31.99,-15.433 31.311,-31.755c-0.748,-18.038 -18.572,-33.104 -36.543,-30.876c-14.476,1.793 -26.803,16.59 -26.491,31.801c0.356,17.38 15.077,31.688 31.723,30.83m713.657,528.023c16.157,-1.146 29.975,-17.704 28.249,-33.86c-1.737,-16.245 -17.894,-29.564 -34.16,-28.148c-17.159,1.492 -29.753,16.601 -27.936,33.538c1.79,16.755 17.124,29.649 33.847,28.47m-2095.27,323.313c16.146,-0.043 31.712,-15.475 31.746,-31.477c0.032,-16.667 -14.521,-30.731 -31.867,-30.788c-16.581,-0.056 -32.658,15.211 -32.481,30.809c0.179,14.922 17.359,31.512 32.602,31.456m515.664,-704.961c16.49,0.077 31.821,-14.564 32.078,-30.644c0.256,-15.486 -15.654,-31.61 -31.277,-31.698c-17.637,-0.089 -30.808,13.083 -30.921,30.921c-0.109,18.404 12.293,31.343 30.12,31.421" style="fill:#afafa5;fill-rule:nonzero;"/><path d="M1751.87,314.004c15.322,0 27.682,-0.165 40.03,0.035c43.57,0.668 80.648,38.925 84.723,82.261c4.051,42.891 -23.327,81.839 -65.338,94.621c-43.269,13.174 -88.143,-6.424 -107.517,-47.799c-10.376,-22.159 -11.467,-45.608 -3.527,-68.724c4.463,-13.014 3.607,-23.871 -4.901,-34.849c-52.799,-68.144 -111.892,-129.585 -184.42,-176.35c-183.031,110.545 -348.024,369.655 -348.836,653.744c-0.802,277.972 159.613,530.405 306.923,625.327c1.438,-5.679 3.72,-10.457 3.699,-15.232c-0.211,-35.953 -2.194,-71.951 -1.181,-107.862c5.165,-182.817 64.624,-346.652 175.404,-491.723c86.392,-113.15 194.462,-199.855 324.202,-258.723c162.155,-73.576 331.322,-93.854 506.624,-63.756c43.892,7.539 46.941,10.812 54.638,54.146c14.852,83.745 14.462,167.943 6.801,252.31c-0.989,10.924 -2.304,21.814 -3.573,33.66c10.253,9.754 20.942,18.527 29.996,28.76c37.701,42.534 25.953,127.492 -45.741,146.265c-41.988,10.988 -86.203,-8.998 -104.476,-47.31c-19.596,-41.1 -8.004,-88.734 28.305,-114.476c8.973,-6.358 18.861,-11.413 29.24,-17.603c8.773,-18.673 8.84,-39.75 10.611,-60.094c5.556,-63.622 3.517,-127.166 -5.59,-190.422c-3.463,-24.064 -5.879,-27.258 -30.742,-31.234c-71.508,-11.424 -143.604,-11.958 -215.109,-3.196c-113.85,13.952 -220.742,49.715 -318.85,110.467c-142.901,88.474 -248.868,208.717 -317.257,362.63c-55.805,125.598 -74.167,256.92 -64.913,392.993c0.401,5.847 4.185,11.459 7.894,21.033c11.336,-11.958 19.93,-20.542 27.982,-29.595c70.615,-79.434 152.764,-144.36 247.465,-192.437c178.843,-90.815 367.194,-117.792 564.131,-78.611c188.164,37.444 345.595,129.395 473.084,272.373c22.961,25.753 43.692,53.612 63.959,81.583c21.589,29.817 21.378,37.535 1.259,66.941c-42.391,61.941 -91.15,118.283 -148.959,166.438c-11.681,9.732 -23.204,19.831 -35.82,28.249c-15.365,10.256 -20.678,21.413 -18.34,41.364c5.088,43.403 -19.328,78.779 -59.381,94.022c-48.601,18.471 -103.484,-10.021 -117.858,-61.206c-14.019,-49.905 15.544,-100.925 65.361,-111.948c17.715,-3.92 35.83,-5.211 52.954,2.638c11.448,5.256 21.469,3.687 30.977,-3.685c68.123,-52.778 129.973,-111.59 177.018,-184.589c0.711,-1.09 0.701,-2.662 1.425,-5.633c-11.769,-22.324 -29.128,-41.966 -46.287,-61.698c-173.889,-200.021 -394.029,-294.73 -657.94,-281.301c-173.6,8.839 -328.168,71.617 -462.095,183.829c-58.78,49.237 -109.409,105.457 -152.342,168.846c-48.291,71.305 -102.784,137.222 -168.734,193.129c-122.057,103.45 -261.16,170.76 -419.862,194.142c-302.627,44.614 -559.522,-45.952 -770.545,-266.339c-29.462,-30.777 -52.676,-67.486 -79.311,-101.047c-14.318,-18.038 -12.749,-34.86 -0.176,-52.989c31.6,-45.573 65.281,-89.498 105.598,-127.68c32.078,-30.375 65.816,-59.001 100.489,-89.887c-0,-9.979 -0.099,-22.17 0.013,-34.363c0.401,-41.677 34.181,-80.036 70.37,-86.861c37.623,-7.092 68.544,3.386 92.239,32.848c23.359,29.037 26.02,69.969 6.79,101.291c-19.817,32.289 -49.279,47.855 -87.359,44.058c-13.53,-1.336 -26.758,-5.799 -42.012,-9.262c-73.878,53.756 -137.513,118.013 -190.01,192.795c103.172,173.52 342.898,347.384 647.806,351.684c265.492,3.741 510.921,-135.162 625.552,-301.191c-5.823,-9.353 -14.61,-5.064 -22.258,-4.442c-81.761,6.636 -162.911,3.787 -243.579,-12.503c-108.351,-21.87 -208.963,-61.92 -301.593,-122.56c-108.27,-70.882 -196.736,-160.97 -263.72,-271.504c-94.599,-156.084 -135.263,-325.686 -122.37,-507.813c2.25,-31.678 6.115,-63.288 10.345,-94.765c4.909,-36.611 12.894,-44.673 49.125,-50.172c92.071,-13.976 184.321,-18.787 276.838,-3.942c4.009,0.644 8.207,0.077 13.741,0.077c7.905,-8.762 15.566,-18.551 24.519,-26.934c28.08,-26.322 70.425,-32.134 104.184,-15.01c35.552,18.06 53.569,55.616 46.856,97.672c-5.847,36.589 -33.259,65.827 -70.383,72.441c-36.955,6.582 -68.509,-4.086 -91.448,-34.962c-6.547,-8.818 -11.368,-18.941 -16.98,-28.46c-57.834,-19.074 -164.367,-20.063 -270.992,-2.493c-10.411,7.282 -10.355,19.016 -11.782,29.716c-18.615,139.75 -5.946,276.238 46.121,407.781c50.851,128.505 129.181,237.802 236.231,325.597c117.134,96.08 250.65,155.05 401.178,175.904c60.738,8.418 121.231,8.773 182.039,3.875c6.814,-0.545 13.562,-2.226 20.275,-3.674c1.068,-0.236 1.825,-1.994 2.827,-3.162c4.732,-10.601 -4.108,-14.398 -10.142,-19.475c-67.063,-56.252 -127.893,-118.094 -176.462,-191.537c-81.772,-123.66 -129.494,-258.734 -141.775,-406.744c-9.867,-118.941 3.495,-234.919 41.455,-347.711c50.56,-150.239 136.185,-277.328 257.718,-379.532c23.249,-19.54 48.537,-36.642 72.23,-55.672c20.699,-16.614 40.832,-15.066 60.54,0.267c32.712,25.443 66.808,49.561 96.804,77.954c34.048,32.233 64.29,68.488 96.034,103.137c6.515,7.095 12.37,14.799 19.864,23.839Zm903.314,1495.39c0.746,-16.625 -12.851,-31.699 -30.154,-33.436c-15.577,-1.561 -32.201,13.594 -33.112,30.183c-0.903,16.392 12.827,31.614 30.218,33.495c15.556,1.681 32.3,-13.653 33.048,-30.242Zm-869.609,-1374.08c17.669,-0.911 31.99,-15.433 31.311,-31.755c-0.748,-18.038 -18.572,-33.104 -36.543,-30.876c-14.476,1.793 -26.803,16.59 -26.491,31.801c0.356,17.38 15.077,31.688 31.723,30.83Zm713.657,528.023c16.157,-1.146 29.975,-17.704 28.249,-33.86c-1.737,-16.245 -17.894,-29.564 -34.16,-28.148c-17.159,1.492 -29.753,16.601 -27.936,33.538c1.79,16.755 17.124,29.649 33.847,28.47Zm-2095.27,323.313c16.146,-0.043 31.712,-15.475 31.746,-31.477c0.032,-16.667 -14.521,-30.731 -31.867,-30.788c-16.581,-0.056 -32.658,15.211 -32.481,30.809c0.179,14.922 17.359,31.512 32.602,31.456Zm515.664,-704.961c16.49,0.077 31.821,-14.564 32.078,-30.644c0.256,-15.486 -15.654,-31.61 -31.277,-31.698c-17.637,-0.089 -30.808,13.083 -30.921,30.921c-0.109,18.404 12.293,31.343 30.12,31.421Z" style="fill:none;fill-rule:nonzero;stroke:#b1b0a4;stroke-width:19.29px;"/><path d="M3278.9,1225.34l110.844,0l0,160.717l2.761,0c19.398,-74.813 87.295,-169.022 227.222,-169.022c18.017,-0 37.412,1.381 54.036,6.926l0,94.209c-18.003,-2.763 -34.627,-4.153 -52.644,-4.153c-145.482,0 -231.375,98.373 -231.375,252.163l0,379.621l-110.844,-0l0,-720.461Z" style="fill:#afafa5;fill-rule:nonzero;"/><path d="M3722.23,1586.95c0,-261.85 152.409,-375.468 336.674,-375.468c185.658,-0 321.434,116.378 321.434,357.464c0,23.549 -1.381,37.402 -4.152,51.263l-547.264,-0c8.305,169.022 91.438,250.773 236.909,250.773c88.675,0 169.033,-29.096 203.674,-127.468l101.136,-0c-47.099,159.335 -169.023,216.143 -306.192,216.143c-198.126,-0 -342.219,-119.163 -342.219,-372.707m551.428,-51.263c-1.382,-151.019 -83.13,-236.92 -216.132,-236.92c-126.076,-0 -217.525,76.203 -228.604,236.92l444.736,0Z" style="fill:#afafa5;fill-rule:nonzero;"/><path d="M4401.13,1225.34l112.226,0l234.149,615.162l4.163,-0l232.757,-615.162l113.618,0l-279.878,720.461l-138.547,-0l-278.488,-720.461Z" style="fill:#afafa5;fill-rule:nonzero;"/><path d="M5118.82,1586.95c-0,-261.85 152.411,-375.468 336.676,-375.468c185.658,-0 321.432,116.378 321.432,357.464c-0,23.549 -1.382,37.402 -4.153,51.263l-547.264,-0c8.308,169.022 91.438,250.773 236.923,250.773c88.664,0 169.022,-29.096 203.66,-127.468l101.147,-0c-47.11,159.335 -169.034,216.143 -306.2,216.143c-198.129,-0 -342.221,-119.163 -342.221,-372.707m551.427,-51.263c-1.379,-151.019 -83.119,-236.92 -216.132,-236.92c-126.076,-0 -217.525,76.203 -228.604,236.92l444.736,0Z" style="fill:#afafa5;fill-rule:nonzero;"/><path d="M6217.51,1305.69c-127.469,-0 -211.98,80.358 -211.98,217.524l0,422.578l-110.844,-0l0,-720.461l110.844,0l0,141.319l2.763,0c12.483,-48.489 81.748,-155.169 248.01,-155.169c142.701,-0 257.697,77.585 257.697,289.564l0,444.747l-110.833,-0l0,-422.578c0,-137.166 -58.189,-217.524 -185.657,-217.524" style="fill:#afafa5;fill-rule:nonzero;"/><path d="M6956,1865.43c120.532,0 203.664,-72.053 211.98,-196.747l1.392,-443.358l110.834,0l-1.393,720.461l-110.833,-0l0,-141.319l-2.771,0c-12.472,48.492 -81.74,155.172 -248.002,155.172c-142.711,0 -257.708,-77.587 -257.708,-289.567l1.392,-444.747l110.834,0l-1.382,422.581c0,137.166 58.189,217.524 185.657,217.524" style="fill:#afafa5;fill-rule:nonzero;"/><path d="M7399.33,1586.95c-0,-261.85 152.409,-375.468 336.674,-375.468c185.657,-0 321.434,116.378 321.434,357.464c-0,23.549 -1.382,37.402 -4.153,51.263l-547.264,-0c8.305,169.022 91.438,250.773 236.909,250.773c88.675,0 169.033,-29.096 203.674,-127.468l101.136,-0c-47.099,159.335 -169.023,216.143 -306.191,216.143c-198.127,-0 -342.219,-119.163 -342.219,-372.707m551.427,-51.263c-1.381,-151.019 -83.13,-236.92 -216.132,-236.92c-126.09,-0 -217.525,76.203 -228.604,236.92l444.736,0Z" style="fill:#afafa5;fill-rule:nonzero;"/></g></svg>