<?xml version="1.0" encoding="UTF-8" standalone="no"?><!DOCTYPE svg PUBLIC "-//W3C//DTD SVG 1.1//EN" "http://www.w3.org/Graphics/SVG/1.1/DTD/svg11.dtd"><svg width="100%" height="100%" viewBox="0 0 9233 2827" version="1.1" xmlns="http://www.w3.org/2000/svg" xmlns:xlink="http://www.w3.org/1999/xlink" xml:space="preserve" xmlns:serif="http://www.serif.com/" style="fill-rule:evenodd;clip-rule:evenodd;stroke-miterlimit:10;"><g><text x="4052.82px" y="2372.2px" style="font-family:'ArialMT', 'Arial', sans-serif;font-size:2493.87px;fill:#afafa5;">l</text><text x="4614.78px" y="2372.2px" style="font-family:'ArialMT', 'Arial', sans-serif;font-size:2493.87px;fill:#afafa5;">otus</text></g><g><path d="M2402.82,466.677c-10.104,-12.171 -17.987,-22.554 -26.754,-32.1c-42.742,-46.65 -83.471,-95.488 -129.321,-138.892c-40.383,-38.229 -86.287,-70.692 -130.333,-104.962c-26.542,-20.625 -53.663,-22.725 -81.525,-0.367c-31.913,25.642 -65.954,48.646 -97.259,74.983c-163.645,137.621 -278.941,308.75 -347.029,511.042c-51.112,151.892 -69.116,308.054 -55.816,468.212c16.525,199.305 80.795,381.18 190.9,547.692c65.4,98.904 147.312,182.171 237.604,257.917c8.146,6.821 20.037,11.941 13.666,26.233c-1.354,1.579 -2.362,3.938 -3.82,4.25c-9.03,1.946 -18.109,4.204 -27.292,4.95c-81.875,6.596 -163.333,6.113 -245.121,-5.225c-202.692,-28.075 -382.467,-107.483 -540.208,-236.858c-144.134,-118.213 -249.6,-265.4 -318.092,-438.421c-70.104,-177.133 -87.171,-360.921 -62.1,-549.096c1.925,-14.412 1.858,-30.225 15.867,-40.017c143.579,-23.666 287.033,-22.345 364.912,3.367c7.554,12.813 14.029,26.442 22.85,38.317c30.9,41.562 73.367,55.937 123.142,47.066c50,-8.891 86.892,-48.283 94.758,-97.537c9.063,-56.629 -15.208,-107.204 -63.091,-131.508c-45.45,-23.075 -102.467,-15.246 -140.28,20.191c-12.045,11.3 -22.358,24.479 -33.004,36.284c-7.446,-0 -13.104,0.745 -18.504,-0.121c-124.583,-19.984 -248.804,-13.492 -372.779,5.312c-48.8,7.413 -59.529,18.263 -66.146,67.55c-5.696,42.413 -10.904,84.95 -13.925,127.604c-17.358,245.263 37.379,473.63 164.758,683.805c90.209,148.837 209.325,270.137 355.121,365.587c124.725,81.65 260.209,135.592 406.096,165.038c108.646,21.925 217.9,25.779 327.983,16.837c10.313,-0.833 22.155,-6.612 29.984,5.975c-154.359,223.558 -484.825,410.608 -842.325,405.554c-410.575,-5.779 -733.367,-239.896 -872.292,-473.541c70.696,-100.696 156.371,-187.221 255.85,-259.6c20.538,4.67 38.35,10.658 56.579,12.466c51.267,5.104 90.938,-15.854 117.621,-59.325c25.904,-42.187 22.313,-97.291 -9.129,-136.387c-31.929,-39.688 -73.558,-53.788 -124.204,-44.238c-48.75,9.184 -94.234,60.85 -94.754,116.963c-0.159,16.404 -0.038,32.829 -0.038,46.266c-46.683,41.596 -92.117,80.138 -135.312,121.042c-54.288,51.408 -99.634,110.554 -142.188,171.908c-16.925,24.43 -19.042,47.067 0.246,71.375c35.85,45.171 67.117,94.617 106.787,136.059c284.15,296.754 630.071,418.696 1037.57,358.646c213.696,-31.513 401.004,-122.138 565.363,-261.442c88.804,-75.263 162.187,-164.029 227.204,-260.054c57.812,-85.363 125.992,-161.059 205.121,-227.359c180.366,-151.095 388.491,-235.625 622.241,-247.516c355.363,-18.092 651.788,109.441 885.938,378.783c23.108,26.563 46.492,53.004 62.325,83.054c-0.971,4.013 -0.954,6.129 -1.908,7.604c-63.35,98.284 -146.634,177.484 -238.35,248.542c-12.83,9.933 -26.321,12.05 -41.721,4.983c-23.071,-10.591 -47.446,-8.837 -71.3,-3.558c-67.084,14.842 -106.892,83.525 -88.021,150.746c19.358,68.908 93.262,107.292 158.696,82.396c53.941,-20.521 86.808,-68.142 79.966,-126.596c-3.141,-26.858 3.992,-41.892 24.688,-55.696c16.979,-11.337 32.5,-24.929 48.246,-38.037c77.829,-64.846 143.491,-140.713 200.554,-224.117c27.104,-39.6 27.396,-49.979 -1.683,-90.138c-27.275,-37.675 -55.209,-75.175 -86.109,-109.841c-171.687,-192.538 -383.666,-316.354 -637.033,-366.771c-265.192,-52.763 -518.8,-16.425 -759.617,105.85c-127.516,64.737 -238.141,152.15 -333.229,259.129c-10.85,12.188 -22.412,23.733 -37.675,39.846c-5,-12.9 -10.104,-20.45 -10.642,-28.333c-12.45,-183.213 12.275,-360.055 87.413,-529.167c92.083,-207.242 234.775,-369.15 427.204,-488.3c132.1,-81.788 276.042,-129.963 429.342,-148.75c96.283,-11.804 193.366,-11.058 289.654,4.325c33.471,5.346 36.733,9.633 41.387,42.046c12.275,85.175 15,170.729 7.534,256.408c-2.396,27.396 -2.463,55.779 -14.288,80.921c-13.975,8.333 -27.291,15.137 -39.375,23.696c-48.887,34.671 -64.512,98.804 -38.108,154.15c24.6,51.579 84.133,78.491 140.679,63.7c96.525,-25.279 112.358,-139.671 61.596,-196.946c-12.204,-13.783 -26.596,-25.608 -40.4,-38.733c1.704,-15.955 3.492,-30.625 4.808,-45.33c10.313,-113.595 10.854,-226.962 -9.166,-339.741c-10.346,-58.35 -14.459,-62.759 -73.559,-72.896c-236.058,-40.542 -463.837,-13.229 -682.187,85.85c-174.704,79.271 -320.209,196.025 -436.563,348.367c-149.166,195.345 -229.233,415.954 -236.179,662.116c-1.354,48.371 1.3,96.842 1.596,145.263c0.037,6.425 -3.038,12.862 -4.983,20.504c-198.367,-127.829 -414.375,-467.725 -413.296,-842.033c1.091,-382.534 223.262,-731.421 469.721,-880.275c97.675,62.966 177.258,145.691 248.35,237.445c11.441,14.775 12.604,29.409 6.579,46.93c-10.692,31.125 -9.217,62.708 4.758,92.533c26.096,55.729 86.513,82.1 144.775,64.375c56.563,-17.204 93.438,-69.671 87.988,-127.413c-5.505,-58.35 -55.417,-109.879 -114.1,-110.783c-16.63,-0.242 -33.263,-0.033 -53.888,-0.033Z" style="fill:#fff;fill-rule:nonzero;stroke:#b1b0a4;stroke-width:34.71px;"/><path d="M2402.82,466.677c20.625,-0 37.258,-0.209 53.888,0.033c58.683,0.904 108.595,52.433 114.1,110.783c5.45,57.742 -31.425,110.209 -87.988,127.413c-58.262,17.725 -118.679,-8.646 -144.775,-64.375c-13.975,-29.825 -15.45,-61.408 -4.758,-92.533c6.025,-17.521 4.862,-32.155 -6.579,-46.93c-71.092,-91.754 -150.675,-174.479 -248.35,-237.445c-246.459,148.854 -468.63,497.741 -469.721,880.275c-1.079,374.308 214.929,714.204 413.296,842.033c1.945,-7.642 5.02,-14.079 4.983,-20.504c-0.296,-48.421 -2.95,-96.892 -1.596,-145.263c6.946,-246.162 87.013,-466.771 236.179,-662.116c116.354,-152.342 261.859,-269.096 436.563,-348.367c218.35,-99.079 446.129,-126.392 682.187,-85.85c59.1,10.137 63.213,14.546 73.559,72.896c20.02,112.779 19.479,226.146 9.166,339.741c-1.316,14.705 -3.104,29.375 -4.808,45.33c13.804,13.125 28.196,24.95 40.4,38.733c50.762,57.275 34.929,171.667 -61.596,196.946c-56.546,14.791 -116.079,-12.121 -140.679,-63.7c-26.404,-55.346 -10.779,-119.479 38.108,-154.15c12.084,-8.559 25.4,-15.363 39.375,-23.696c11.825,-25.142 11.892,-53.525 14.288,-80.921c7.466,-85.679 4.741,-171.233 -7.534,-256.408c-4.654,-32.413 -7.916,-36.7 -41.387,-42.046c-96.288,-15.383 -193.371,-16.129 -289.654,-4.325c-153.3,18.787 -297.242,66.962 -429.342,148.75c-192.429,119.15 -335.121,281.058 -427.204,488.3c-75.138,169.112 -99.863,345.954 -87.413,529.167c0.538,7.883 5.642,15.433 10.642,28.333c15.263,-16.113 26.825,-27.658 37.675,-39.846c95.088,-106.979 205.713,-194.392 333.229,-259.129c240.817,-122.275 494.425,-158.613 759.617,-105.85c253.367,50.417 465.346,174.233 637.033,366.771c30.9,34.666 58.834,72.166 86.109,109.841c29.079,40.159 28.787,50.538 1.683,90.138c-57.063,83.404 -122.725,159.271 -200.554,224.117c-15.746,13.108 -31.267,26.7 -48.246,38.037c-20.696,13.804 -27.829,28.838 -24.688,55.696c6.842,58.454 -26.025,106.075 -79.966,126.596c-65.434,24.896 -139.338,-13.488 -158.696,-82.396c-18.871,-67.221 20.937,-135.904 88.021,-150.746c23.854,-5.279 48.229,-7.033 71.3,3.558c15.4,7.067 28.891,4.95 41.721,-4.983c91.716,-71.058 175,-150.258 238.35,-248.542c0.954,-1.475 0.937,-3.591 1.908,-7.604c-15.833,-30.05 -39.217,-56.491 -62.325,-83.054c-234.15,-269.342 -530.575,-396.875 -885.938,-378.783c-233.75,11.891 -441.875,96.421 -622.241,247.516c-79.129,66.3 -147.309,141.996 -205.121,227.359c-65.017,96.025 -138.4,184.791 -227.204,260.054c-164.359,139.304 -351.667,229.929 -565.363,261.442c-407.5,60.05 -753.421,-61.892 -1037.57,-358.646c-39.67,-41.442 -70.937,-90.888 -106.787,-136.059c-19.288,-24.308 -17.171,-46.945 -0.246,-71.375c42.554,-61.354 87.9,-120.5 142.188,-171.908c43.195,-40.904 88.629,-79.446 135.312,-121.042c0,-13.437 -0.121,-29.862 0.038,-46.266c0.52,-56.113 46.004,-107.779 94.754,-116.963c50.646,-9.55 92.275,4.55 124.204,44.238c31.442,39.096 35.033,94.2 9.129,136.387c-26.683,43.471 -66.354,64.429 -117.621,59.325c-18.229,-1.808 -36.041,-7.796 -56.579,-12.466c-99.479,72.379 -185.154,158.904 -255.85,259.6c138.925,233.645 461.717,467.762 872.292,473.541c357.5,5.054 687.966,-181.996 842.325,-405.554c-7.829,-12.587 -19.671,-6.808 -29.984,-5.975c-110.083,8.942 -219.337,5.088 -327.983,-16.837c-145.887,-29.446 -281.371,-83.388 -406.096,-165.038c-145.796,-95.45 -264.912,-216.75 -355.121,-365.587c-127.379,-210.175 -182.116,-438.542 -164.758,-683.805c3.021,-42.654 8.229,-85.191 13.925,-127.604c6.617,-49.287 17.346,-60.137 66.146,-67.55c123.975,-18.804 248.196,-25.296 372.779,-5.312c5.4,0.866 11.058,0.121 18.504,0.121c10.646,-11.805 20.959,-24.984 33.004,-36.284c37.813,-35.437 94.83,-43.266 140.28,-20.191c47.883,24.304 72.154,74.879 63.091,131.508c-7.866,49.254 -44.758,88.646 -94.758,97.537c-49.775,8.871 -92.242,-5.504 -123.142,-47.066c-8.821,-11.875 -15.296,-25.504 -22.85,-38.317c-77.879,-25.712 -221.333,-27.033 -364.912,-3.367c-14.009,9.792 -13.942,25.605 -15.867,40.017c-25.071,188.175 -8.004,371.963 62.1,549.096c68.492,173.021 173.958,320.208 318.092,438.421c157.741,129.375 337.516,208.783 540.208,236.858c81.788,11.338 163.246,11.821 245.121,5.225c9.183,-0.746 18.262,-3.004 27.292,-4.95c1.458,-0.312 2.466,-2.671 3.82,-4.25c6.371,-14.292 -5.52,-19.412 -13.666,-26.233c-90.292,-75.746 -172.204,-159.013 -237.604,-257.917c-110.105,-166.512 -174.375,-348.387 -190.9,-547.692c-13.3,-160.158 4.704,-316.32 55.816,-468.212c68.088,-202.292 183.384,-373.421 347.029,-511.042c31.305,-26.337 65.346,-49.341 97.259,-74.983c27.862,-22.358 54.983,-20.258 81.525,0.367c44.046,34.27 89.95,66.733 130.333,104.962c45.85,43.404 86.579,92.242 129.321,138.892c8.767,9.546 16.65,19.929 26.754,32.1m1216.35,2013.61c1.009,-22.396 -17.308,-42.691 -40.608,-45.037c-20.971,-2.1 -43.35,18.3 -44.6,40.641c-1.217,22.084 17.275,42.571 40.696,45.105c20.937,2.258 43.504,-18.384 44.512,-40.709m-1170.97,-1850.26c23.784,-1.217 43.071,-20.779 42.167,-42.759c-1.004,-24.291 -25.017,-44.583 -49.217,-41.583c-19.495,2.433 -36.095,22.346 -35.658,42.833c0.467,23.4 20.292,42.655 42.708,41.509m960.971,711.008c21.754,-1.546 40.363,-23.854 38.038,-45.608c-2.342,-21.859 -24.096,-39.792 -45.988,-37.9c-23.125,2.012 -40.087,22.362 -37.641,45.175c2.412,22.55 23.058,39.912 45.591,38.333m-2821.35,435.346c21.738,-0.05 42.692,-20.85 42.742,-42.379c0.037,-22.446 -19.546,-41.371 -42.917,-41.459c-22.325,-0.066 -43.975,20.471 -43.733,41.475c0.246,20.105 23.387,42.434 43.908,42.363m694.358,-949.254c22.205,0.104 42.83,-19.617 43.192,-41.267c0.35,-20.85 -21.092,-42.571 -42.117,-42.675c-23.75,-0.137 -41.491,17.604 -41.633,41.633c-0.154,24.775 16.546,42.205 40.558,42.309" style="fill:#afafa5;fill-rule:nonzero;"/></g></svg>