<?xml version="1.0" encoding="UTF-8" standalone="no"?><!DOCTYPE svg PUBLIC "-//W3C//DTD SVG 1.1//EN" "http://www.w3.org/Graphics/SVG/1.1/DTD/svg11.dtd"><svg width="100%" height="100%" viewBox="0 0 33338 18750" version="1.1" xmlns="http://www.w3.org/2000/svg" xmlns:xlink="http://www.w3.org/1999/xlink" xml:space="preserve" xmlns:serif="http://www.serif.com/" style="fill-rule:evenodd;clip-rule:evenodd;stroke-miterlimit:10;"><rect id="Página-11" serif:id="Página 11" x="0" y="0" width="33333.7" height="18750" style="fill:none;"/><g><g><text x="17746.1px" y="7845.2px" style="font-family:'ArialMT', 'Arial', sans-serif;font-size:2493.87px;fill:#afafa5;">l</text><text x="18308.1px" y="7845.2px" style="font-family:'ArialMT', 'Arial', sans-serif;font-size:2493.87px;fill:#afafa5;">otus</text></g><path d="M14220.7,6050c-10.104,-12.171 -17.988,-22.554 -26.754,-32.1c-42.742,-46.65 -83.471,-95.487 -129.321,-138.892c-40.384,-38.229 -86.288,-70.691 -130.334,-104.962c-26.541,-20.625 -53.662,-22.725 -81.525,-0.367c-31.912,25.642 -65.954,48.646 -97.258,74.984c-163.646,137.62 -278.942,308.75 -347.029,511.041c-51.113,151.892 -69.117,308.054 -55.817,468.213c16.525,199.304 80.796,381.179 190.9,547.691c65.4,98.905 147.313,182.171 237.604,257.917c8.146,6.821 20.038,11.942 13.667,26.233c-1.354,1.58 -2.362,3.938 -3.821,4.25c-9.029,1.946 -18.108,4.205 -27.291,4.95c-81.875,6.596 -163.334,6.113 -245.121,-5.225c-202.692,-28.075 -382.467,-107.483 -540.209,-236.858c-144.133,-118.212 -249.6,-265.4 -318.091,-438.421c-70.104,-177.133 -87.171,-360.921 -62.1,-549.096c1.925,-14.412 1.858,-30.225 15.866,-40.016c143.58,-23.667 287.034,-22.346 364.913,3.366c7.554,12.813 14.029,26.442 22.85,38.317c30.9,41.563 73.367,55.938 123.142,47.067c50,-8.892 86.891,-48.284 94.758,-97.538c9.062,-56.629 -15.208,-107.204 -63.092,-131.508c-45.45,-23.075 -102.466,-15.246 -140.279,20.192c-12.046,11.3 -22.358,24.479 -33.004,36.283c-7.446,-0 -13.104,0.746 -18.504,-0.121c-124.584,-19.983 -248.804,-13.492 -372.779,5.313c-48.8,7.412 -59.53,18.262 -66.146,67.55c-5.696,42.412 -10.904,84.95 -13.925,127.604c-17.359,245.262 37.379,473.629 164.758,683.804c90.208,148.837 209.325,270.137 355.121,365.587c124.725,81.65 260.208,135.592 406.096,165.038c108.646,21.925 217.9,25.779 327.983,16.837c10.313,-0.833 22.154,-6.612 29.983,5.975c-154.358,223.559 -484.825,410.609 -842.325,405.555c-410.575,-5.78 -733.366,-239.896 -872.291,-473.542c70.696,-100.696 156.371,-187.221 255.85,-259.6c20.537,4.671 38.35,10.658 56.579,12.467c51.267,5.104 90.937,-15.855 117.621,-59.325c25.904,-42.188 22.312,-97.292 -9.129,-136.388c-31.93,-39.687 -73.559,-53.787 -124.205,-44.237c-48.75,9.183 -94.233,60.85 -94.754,116.962c-0.158,16.404 -0.037,32.829 -0.037,46.267c-46.684,41.596 -92.117,80.137 -135.313,121.041c-54.287,51.409 -99.633,110.555 -142.187,171.909c-16.925,24.429 -19.042,47.066 0.246,71.375c35.85,45.171 67.116,94.616 106.787,136.058c284.15,296.754 630.071,418.696 1037.57,358.646c213.696,-31.513 401.004,-122.138 565.362,-261.442c88.805,-75.262 162.188,-164.029 227.205,-260.054c57.812,-85.362 125.991,-161.058 205.12,-227.358c180.367,-151.096 388.492,-235.625 622.242,-247.517c355.363,-18.092 651.788,109.442 885.938,378.783c23.108,26.563 46.491,53.005 62.325,83.055c-0.971,4.012 -0.955,6.129 -1.909,7.604c-63.35,98.283 -146.633,177.483 -238.35,248.541c-12.829,9.934 -26.321,12.05 -41.721,4.984c-23.07,-10.592 -47.445,-8.838 -71.3,-3.559c-67.083,14.842 -106.891,83.525 -88.02,150.746c19.358,68.909 93.262,107.292 158.695,82.396c53.942,-20.521 86.809,-68.142 79.967,-126.596c-3.142,-26.858 3.992,-41.891 24.688,-55.696c16.979,-11.337 32.5,-24.929 48.245,-38.037c77.83,-64.846 143.492,-140.713 200.555,-224.117c27.104,-39.6 27.395,-49.979 -1.684,-90.137c-27.275,-37.675 -55.208,-75.175 -86.108,-109.842c-171.688,-192.537 -383.667,-316.354 -637.033,-366.771c-265.192,-52.762 -518.8,-16.425 -759.617,105.85c-127.517,64.738 -238.142,152.15 -333.229,259.129c-10.85,12.188 -22.413,23.734 -37.675,39.846c-5,-12.9 -10.104,-20.45 -10.642,-28.333c-12.45,-183.213 12.275,-360.054 87.413,-529.167c92.083,-207.241 234.775,-369.15 427.204,-488.3c132.1,-81.787 276.041,-129.962 429.341,-148.75c96.284,-11.804 193.367,-11.058 289.655,4.325c33.47,5.346 36.733,9.634 41.387,42.046c12.275,85.175 15,170.729 7.533,256.408c-2.395,27.396 -2.462,55.78 -14.287,80.921c-13.975,8.334 -27.292,15.138 -39.375,23.696c-48.888,34.671 -64.513,98.804 -38.108,154.15c24.6,51.579 84.133,78.492 140.679,63.7c96.525,-25.279 112.358,-139.671 61.596,-196.946c-12.205,-13.783 -26.596,-25.608 -40.4,-38.733c1.704,-15.954 3.491,-30.625 4.808,-45.329c10.312,-113.596 10.854,-226.963 -9.167,-339.742c-10.346,-58.35 -14.458,-62.758 -73.558,-72.896c-236.058,-40.541 -463.838,-13.229 -682.188,85.85c-174.704,79.271 -320.208,196.025 -436.562,348.367c-149.167,195.346 -229.233,415.954 -236.179,662.117c-1.354,48.37 1.3,96.841 1.596,145.262c0.037,6.425 -3.038,12.863 -4.984,20.504c-198.366,-127.829 -414.375,-467.725 -413.296,-842.033c1.092,-382.533 223.263,-731.421 469.721,-880.275c97.675,62.967 177.259,145.692 248.35,237.446c11.442,14.775 12.604,29.408 6.579,46.929c-10.691,31.125 -9.216,62.708 4.759,92.533c26.096,55.729 86.512,82.1 144.775,64.375c56.562,-17.204 93.437,-69.671 87.987,-127.412c-5.504,-58.35 -55.416,-109.879 -114.1,-110.784c-16.629,-0.241 -33.262,-0.033 -53.887,-0.033Z" style="fill:#fff;fill-rule:nonzero;stroke:#b1b0a4;stroke-width:34.71px;"/><path d="M14220.7,6050c20.625,0 37.258,-0.208 53.887,0.033c58.684,0.905 108.596,52.434 114.1,110.784c5.45,57.741 -31.425,110.208 -87.987,127.412c-58.263,17.725 -118.68,-8.646 -144.775,-64.375c-13.975,-29.825 -15.45,-61.408 -4.759,-92.533c6.025,-17.521 4.863,-32.154 -6.579,-46.929c-71.092,-91.755 -150.675,-174.479 -248.35,-237.446c-246.458,148.854 -468.629,497.742 -469.721,880.275c-1.079,374.308 214.929,714.204 413.296,842.033c1.946,-7.641 5.021,-14.079 4.983,-20.504c-0.295,-48.421 -2.95,-96.892 -1.595,-145.263c6.945,-246.162 87.012,-466.77 236.179,-662.116c116.354,-152.342 261.858,-269.096 436.562,-348.367c218.35,-99.079 446.129,-126.391 682.188,-85.85c59.1,10.138 63.212,14.546 73.558,72.896c20.021,112.779 19.479,226.146 9.167,339.742c-1.317,14.704 -3.104,29.375 -4.809,45.329c13.805,13.125 28.196,24.95 40.4,38.733c50.763,57.275 34.93,171.667 -61.595,196.946c-56.546,14.792 -116.08,-12.121 -140.68,-63.7c-26.404,-55.346 -10.779,-119.479 38.109,-154.15c12.083,-8.558 25.4,-15.363 39.375,-23.696c11.825,-25.142 11.891,-53.525 14.287,-80.921c7.467,-85.679 4.742,-171.233 -7.533,-256.408c-4.654,-32.413 -7.917,-36.7 -41.388,-42.046c-96.287,-15.383 -193.37,-16.129 -289.654,-4.325c-153.3,18.788 -297.241,66.963 -429.341,148.75c-192.43,119.15 -335.121,281.059 -427.205,488.3c-75.137,169.113 -99.862,345.954 -87.412,529.167c0.537,7.883 5.642,15.433 10.642,28.333c15.262,-16.112 26.825,-27.658 37.675,-39.846c95.087,-106.979 205.712,-194.391 333.229,-259.129c240.816,-122.275 494.425,-158.612 759.616,-105.85c253.367,50.417 465.346,174.233 637.034,366.771c30.9,34.667 58.833,72.167 86.108,109.842c29.079,40.158 28.788,50.537 1.683,90.137c-57.062,83.404 -122.725,159.271 -200.554,224.117c-15.746,13.108 -31.266,26.7 -48.246,38.037c-20.695,13.805 -27.829,28.838 -24.687,55.696c6.842,58.454 -26.025,106.075 -79.967,126.596c-65.433,24.896 -139.337,-13.487 -158.696,-82.396c-18.87,-67.221 20.938,-135.904 88.021,-150.746c23.854,-5.279 48.229,-7.033 71.3,3.559c15.4,7.066 28.892,4.95 41.721,-4.984c91.717,-71.058 175,-150.258 238.35,-248.541c0.954,-1.475 0.938,-3.592 1.908,-7.604c-15.833,-30.05 -39.216,-56.492 -62.325,-83.055c-234.149,-269.341 -530.575,-396.875 -885.937,-378.783c-233.75,11.892 -441.875,96.421 -622.242,247.517c-79.129,66.3 -147.308,141.996 -205.121,227.358c-65.016,96.025 -138.4,184.792 -227.204,260.054c-164.358,139.304 -351.666,229.929 -565.362,261.442c-407.5,60.05 -753.421,-61.892 -1037.57,-358.646c-39.671,-41.442 -70.938,-90.887 -106.788,-136.058c-19.287,-24.309 -17.17,-46.946 -0.245,-71.375c42.554,-61.354 87.9,-120.5 142.187,-171.909c43.196,-40.904 88.629,-79.445 135.313,-121.041c-0,-13.438 -0.121,-29.863 0.037,-46.267c0.521,-56.113 46.004,-107.779 94.754,-116.962c50.646,-9.55 92.275,4.55 124.204,44.237c31.442,39.096 35.034,94.2 9.13,136.388c-26.684,43.47 -66.355,64.429 -117.621,59.325c-18.229,-1.809 -36.042,-7.796 -56.579,-12.467c-99.48,72.379 -185.155,158.904 -255.85,259.6c138.925,233.646 461.716,467.762 872.291,473.542c357.5,5.054 687.967,-181.996 842.325,-405.555c-7.829,-12.587 -19.671,-6.808 -29.983,-5.975c-110.083,8.942 -219.338,5.088 -327.983,-16.837c-145.888,-29.446 -281.371,-83.388 -406.096,-165.038c-145.796,-95.45 -264.913,-216.75 -355.121,-365.587c-127.379,-210.175 -182.117,-438.542 -164.758,-683.804c3.02,-42.654 8.229,-85.192 13.925,-127.604c6.616,-49.288 17.345,-60.138 66.145,-67.55c123.975,-18.805 248.196,-25.296 372.78,-5.313c5.4,0.867 11.058,0.121 18.504,0.121c10.646,-11.804 20.958,-24.983 33.004,-36.283c37.812,-35.438 94.829,-43.267 140.279,-20.192c47.883,24.304 72.154,74.879 63.092,131.508c-7.867,49.254 -44.759,88.646 -94.759,97.538c-49.775,8.871 -92.241,-5.504 -123.141,-47.067c-8.821,-11.875 -15.296,-25.504 -22.85,-38.317c-77.879,-25.712 -221.334,-27.033 -364.913,-3.366c-14.008,9.791 -13.941,25.604 -15.866,40.016c-25.071,188.175 -8.005,371.963 62.1,549.096c68.491,173.021 173.958,320.209 318.091,438.421c157.742,129.375 337.517,208.783 540.209,236.858c81.787,11.338 163.245,11.821 245.12,5.225c9.184,-0.745 18.263,-3.004 27.292,-4.95c1.458,-0.312 2.467,-2.67 3.821,-4.25c6.371,-14.291 -5.521,-19.412 -13.667,-26.233c-90.291,-75.746 -172.204,-159.012 -237.604,-257.917c-110.104,-166.512 -174.375,-348.387 -190.9,-547.691c-13.3,-160.159 4.704,-316.321 55.817,-468.213c68.087,-202.291 183.383,-373.421 347.029,-511.041c31.304,-26.338 65.346,-49.342 97.258,-74.984c27.863,-22.358 54.984,-20.258 81.525,0.367c44.046,34.271 89.95,66.733 130.334,104.962c45.85,43.405 86.579,92.242 129.32,138.892c8.767,9.546 16.65,19.929 26.755,32.1m1216.35,2013.61c1.008,-22.396 -17.309,-42.692 -40.609,-45.038c-20.97,-2.1 -43.35,18.3 -44.6,40.642c-1.216,22.083 17.275,42.571 40.696,45.104c20.938,2.258 43.504,-18.383 44.513,-40.708m-1170.97,-1850.26c23.783,-1.217 43.071,-20.779 42.167,-42.758c-1.005,-24.292 -25.017,-44.584 -49.217,-41.584c-19.496,2.434 -36.096,22.346 -35.658,42.834c0.466,23.4 20.291,42.654 42.708,41.508m960.971,711.008c21.754,-1.546 40.362,-23.854 38.037,-45.608c-2.341,-21.858 -24.096,-39.792 -45.987,-37.9c-23.125,2.012 -40.088,22.362 -37.642,45.175c2.413,22.55 23.058,39.912 45.592,38.333m-2821.35,435.346c21.737,-0.05 42.691,-20.85 42.741,-42.379c0.038,-22.446 -19.546,-41.371 -42.916,-41.458c-22.325,-0.067 -43.975,20.47 -43.734,41.475c0.246,20.104 23.388,42.433 43.909,42.362m694.358,-949.254c22.204,0.104 42.829,-19.617 43.192,-41.267c0.35,-20.85 -21.092,-42.571 -42.117,-42.675c-23.75,-0.137 -41.492,17.604 -41.633,41.634c-0.155,24.775 16.545,42.204 40.558,42.308" style="fill:#afafa5;fill-rule:nonzero;"/><path d="M14220.7,6050c20.625,0 37.258,-0.208 53.887,0.033c58.684,0.905 108.596,52.434 114.1,110.784c5.45,57.741 -31.425,110.208 -87.987,127.412c-58.263,17.725 -118.68,-8.646 -144.775,-64.375c-13.975,-29.825 -15.45,-61.408 -4.759,-92.533c6.025,-17.521 4.863,-32.154 -6.579,-46.929c-71.092,-91.755 -150.675,-174.479 -248.35,-237.446c-246.458,148.854 -468.629,497.742 -469.721,880.275c-1.079,374.308 214.929,714.204 413.296,842.033c1.946,-7.641 5.021,-14.079 4.983,-20.504c-0.295,-48.421 -2.95,-96.892 -1.595,-145.263c6.945,-246.162 87.012,-466.77 236.179,-662.116c116.354,-152.342 261.858,-269.096 436.562,-348.367c218.35,-99.079 446.129,-126.391 682.188,-85.85c59.1,10.138 63.212,14.546 73.558,72.896c20.021,112.779 19.479,226.146 9.167,339.742c-1.317,14.704 -3.104,29.375 -4.809,45.329c13.805,13.125 28.196,24.95 40.4,38.733c50.763,57.275 34.93,171.667 -61.595,196.946c-56.546,14.792 -116.08,-12.121 -140.68,-63.7c-26.404,-55.346 -10.779,-119.479 38.109,-154.15c12.083,-8.558 25.4,-15.363 39.375,-23.696c11.825,-25.142 11.891,-53.525 14.287,-80.921c7.467,-85.679 4.742,-171.233 -7.533,-256.408c-4.654,-32.413 -7.917,-36.7 -41.388,-42.046c-96.287,-15.383 -193.37,-16.129 -289.654,-4.325c-153.3,18.788 -297.241,66.963 -429.341,148.75c-192.43,119.15 -335.121,281.059 -427.205,488.3c-75.137,169.113 -99.862,345.954 -87.412,529.167c0.537,7.883 5.642,15.433 10.642,28.333c15.262,-16.112 26.825,-27.658 37.675,-39.846c95.087,-106.979 205.712,-194.391 333.229,-259.129c240.816,-122.275 494.425,-158.612 759.616,-105.85c253.367,50.417 465.346,174.233 637.034,366.771c30.9,34.667 58.833,72.167 86.108,109.842c29.079,40.158 28.788,50.537 1.683,90.137c-57.062,83.404 -122.725,159.271 -200.554,224.117c-15.746,13.108 -31.266,26.7 -48.246,38.037c-20.695,13.805 -27.829,28.838 -24.687,55.696c6.842,58.454 -26.025,106.075 -79.967,126.596c-65.433,24.896 -139.337,-13.487 -158.696,-82.396c-18.87,-67.221 20.938,-135.904 88.021,-150.746c23.854,-5.279 48.229,-7.033 71.3,3.559c15.4,7.066 28.892,4.95 41.721,-4.984c91.717,-71.058 175,-150.258 238.35,-248.541c0.954,-1.475 0.938,-3.592 1.908,-7.604c-15.833,-30.05 -39.216,-56.492 -62.325,-83.055c-234.149,-269.341 -530.575,-396.875 -885.937,-378.783c-233.75,11.892 -441.875,96.421 -622.242,247.517c-79.129,66.3 -147.308,141.996 -205.121,227.358c-65.016,96.025 -138.4,184.792 -227.204,260.054c-164.358,139.304 -351.666,229.929 -565.362,261.442c-407.5,60.05 -753.421,-61.892 -1037.57,-358.646c-39.671,-41.442 -70.938,-90.887 -106.788,-136.058c-19.287,-24.309 -17.17,-46.946 -0.245,-71.375c42.554,-61.354 87.9,-120.5 142.187,-171.909c43.196,-40.904 88.629,-79.445 135.313,-121.041c-0,-13.438 -0.121,-29.863 0.037,-46.267c0.521,-56.113 46.004,-107.779 94.754,-116.962c50.646,-9.55 92.275,4.55 124.204,44.237c31.442,39.096 35.034,94.2 9.13,136.388c-26.684,43.47 -66.355,64.429 -117.621,59.325c-18.229,-1.809 -36.042,-7.796 -56.579,-12.467c-99.48,72.379 -185.155,158.904 -255.85,259.6c138.925,233.646 461.716,467.762 872.291,473.542c357.5,5.054 687.967,-181.996 842.325,-405.555c-7.829,-12.587 -19.671,-6.808 -29.983,-5.975c-110.083,8.942 -219.338,5.088 -327.983,-16.837c-145.888,-29.446 -281.371,-83.388 -406.096,-165.038c-145.796,-95.45 -264.913,-216.75 -355.121,-365.587c-127.379,-210.175 -182.117,-438.542 -164.758,-683.804c3.02,-42.654 8.229,-85.192 13.925,-127.604c6.616,-49.288 17.345,-60.138 66.145,-67.55c123.975,-18.805 248.196,-25.296 372.78,-5.313c5.4,0.867 11.058,0.121 18.504,0.121c10.646,-11.804 20.958,-24.983 33.004,-36.283c37.812,-35.438 94.829,-43.267 140.279,-20.192c47.883,24.304 72.154,74.879 63.092,131.508c-7.867,49.254 -44.759,88.646 -94.759,97.538c-49.775,8.871 -92.241,-5.504 -123.141,-47.067c-8.821,-11.875 -15.296,-25.504 -22.85,-38.317c-77.879,-25.712 -221.334,-27.033 -364.913,-3.366c-14.008,9.791 -13.941,25.604 -15.866,40.016c-25.071,188.175 -8.005,371.963 62.1,549.096c68.491,173.021 173.958,320.209 318.091,438.421c157.742,129.375 337.517,208.783 540.209,236.858c81.787,11.338 163.245,11.821 245.12,5.225c9.184,-0.745 18.263,-3.004 27.292,-4.95c1.458,-0.312 2.467,-2.67 3.821,-4.25c6.371,-14.291 -5.521,-19.412 -13.667,-26.233c-90.291,-75.746 -172.204,-159.012 -237.604,-257.917c-110.104,-166.512 -174.375,-348.387 -190.9,-547.691c-13.3,-160.159 4.704,-316.321 55.817,-468.213c68.087,-202.291 183.383,-373.421 347.029,-511.041c31.304,-26.338 65.346,-49.342 97.258,-74.984c27.863,-22.358 54.984,-20.258 81.525,0.367c44.046,34.271 89.95,66.733 130.334,104.962c45.85,43.405 86.579,92.242 129.32,138.892c8.767,9.546 16.65,19.929 26.755,32.1Zm1216.35,2013.61c1.008,-22.396 -17.309,-42.692 -40.609,-45.038c-20.97,-2.1 -43.35,18.3 -44.6,40.642c-1.216,22.083 17.275,42.571 40.696,45.104c20.938,2.258 43.504,-18.383 44.513,-40.708Zm-1170.97,-1850.26c23.783,-1.217 43.071,-20.779 42.167,-42.758c-1.005,-24.292 -25.017,-44.584 -49.217,-41.584c-19.496,2.434 -36.096,22.346 -35.658,42.834c0.466,23.4 20.291,42.654 42.708,41.508Zm960.971,711.008c21.754,-1.545 40.362,-23.854 38.037,-45.608c-2.341,-21.858 -24.096,-39.792 -45.987,-37.9c-23.125,2.013 -40.088,22.363 -37.642,45.175c2.413,22.55 23.058,39.913 45.592,38.333Zm-2821.35,435.346c21.737,-0.05 42.691,-20.85 42.741,-42.379c0.038,-22.446 -19.546,-41.371 -42.916,-41.458c-22.325,-0.067 -43.975,20.471 -43.734,41.475c0.246,20.104 23.388,42.433 43.909,42.362Zm694.358,-949.254c22.204,0.104 42.829,-19.617 43.192,-41.267c0.35,-20.85 -21.092,-42.57 -42.117,-42.675c-23.75,-0.137 -41.492,17.605 -41.633,41.634c-0.155,24.775 16.545,42.204 40.558,42.308Z" style="fill:none;fill-rule:nonzero;stroke:#b1b0a4;stroke-width:34.71px;"/><g><text x="15953.4px" y="4756.23px" style="font-family:'ArialMT', 'Arial', sans-serif;font-size:2493.87px;fill:#afafa5;">l</text><text x="16515.4px" y="4756.23px" style="font-family:'ArialMT', 'Arial', sans-serif;font-size:2493.87px;fill:#afafa5;">otus</text></g><path d="M14303.4,2850.7c-10.104,-12.17 -17.988,-22.554 -26.754,-32.1c-42.742,-46.65 -83.471,-95.487 -129.321,-138.891c-40.383,-38.229 -86.288,-70.692 -130.333,-104.963c-26.542,-20.625 -53.663,-22.725 -81.525,-0.366c-31.913,25.641 -65.955,48.645 -97.259,74.983c-163.646,137.621 -278.941,308.75 -347.029,511.042c-51.112,151.891 -69.117,308.054 -55.817,468.212c16.525,199.304 80.796,381.179 190.9,547.692c65.4,98.904 147.313,182.171 237.605,257.916c8.145,6.821 20.037,11.942 13.666,26.234c-1.354,1.579 -2.362,3.937 -3.821,4.25c-9.029,1.946 -18.108,4.204 -27.291,4.95c-81.875,6.596 -163.334,6.112 -245.121,-5.225c-202.692,-28.075 -382.467,-107.484 -540.208,-236.859c-144.134,-118.212 -249.6,-265.4 -318.092,-438.42c-70.104,-177.134 -87.171,-360.921 -62.1,-549.096c1.925,-14.413 1.858,-30.225 15.867,-40.017c143.579,-23.667 287.033,-22.346 364.912,3.367c7.554,12.812 14.029,26.441 22.85,38.316c30.9,41.563 73.367,55.938 123.142,47.067c50,-8.892 86.891,-48.283 94.758,-97.537c9.063,-56.63 -15.208,-107.205 -63.092,-131.509c-45.45,-23.075 -102.466,-15.246 -140.279,20.192c-12.046,11.3 -22.358,24.479 -33.004,36.283c-7.446,0 -13.104,0.746 -18.504,-0.121c-124.583,-19.983 -248.804,-13.491 -372.779,5.313c-48.8,7.412 -59.529,18.262 -66.146,67.55c-5.696,42.412 -10.904,84.95 -13.925,127.604c-17.358,245.263 37.379,473.629 164.758,683.804c90.209,148.838 209.325,270.138 355.121,365.588c124.725,81.65 260.208,135.591 406.096,165.037c108.646,21.925 217.9,25.779 327.983,16.838c10.313,-0.834 22.154,-6.613 29.984,5.975c-154.359,223.558 -484.825,410.608 -842.325,405.554c-410.575,-5.779 -733.367,-239.896 -872.292,-473.542c70.696,-100.696 156.371,-187.221 255.85,-259.6c20.537,4.671 38.35,10.659 56.579,12.467c51.267,5.104 90.938,-15.854 117.621,-59.325c25.904,-42.188 22.312,-97.292 -9.129,-136.388c-31.929,-39.687 -73.559,-53.787 -124.204,-44.237c-48.75,9.183 -94.234,60.85 -94.755,116.962c-0.158,16.405 -0.037,32.83 -0.037,46.267c-46.683,41.596 -92.117,80.138 -135.313,121.042c-54.287,51.408 -99.633,110.554 -142.187,171.908c-16.925,24.429 -19.042,47.067 0.246,71.375c35.85,45.171 67.116,94.617 106.787,136.058c284.15,296.755 630.071,418.696 1037.57,358.646c213.696,-31.512 401.004,-122.137 565.363,-261.441c88.804,-75.263 162.187,-164.03 227.204,-260.055c57.812,-85.362 125.991,-161.058 205.121,-227.358c180.366,-151.096 388.491,-235.625 622.241,-247.517c355.363,-18.091 651.788,109.442 885.938,378.784c23.108,26.562 46.491,53.004 62.325,83.054c-0.971,4.012 -0.954,6.129 -1.909,7.604c-63.35,98.283 -146.633,177.483 -238.35,248.542c-12.829,9.933 -26.32,12.05 -41.72,4.983c-23.071,-10.592 -47.446,-8.837 -71.3,-3.558c-67.084,14.841 -106.892,83.525 -88.021,150.746c19.358,68.908 93.262,107.291 158.696,82.395c53.941,-20.52 86.808,-68.141 79.966,-126.595c-3.141,-26.859 3.992,-41.892 24.688,-55.696c16.979,-11.338 32.5,-24.929 48.246,-38.038c77.829,-64.846 143.491,-140.712 200.554,-224.116c27.104,-39.6 27.396,-49.98 -1.684,-90.138c-27.275,-37.675 -55.208,-75.175 -86.108,-109.842c-171.687,-192.537 -383.667,-316.354 -637.033,-366.77c-265.192,-52.763 -518.8,-16.425 -759.617,105.85c-127.517,64.737 -238.142,152.15 -333.229,259.129c-10.85,12.187 -22.413,23.733 -37.675,39.846c-5,-12.9 -10.104,-20.45 -10.642,-28.334c-12.45,-183.212 12.275,-360.054 87.413,-529.166c92.083,-207.242 234.775,-369.15 427.204,-488.3c132.1,-81.788 276.042,-129.963 429.342,-148.75c96.283,-11.805 193.366,-11.059 289.654,4.325c33.471,5.345 36.733,9.633 41.387,42.045c12.275,85.175 15,170.73 7.534,256.409c-2.396,27.396 -2.463,55.779 -14.288,80.921c-13.975,8.333 -27.292,15.137 -39.375,23.695c-48.887,34.671 -64.512,98.805 -38.108,154.15c24.6,51.58 84.133,78.492 140.679,63.7c96.525,-25.279 112.358,-139.67 61.596,-196.945c-12.204,-13.784 -26.596,-25.609 -40.4,-38.734c1.704,-15.954 3.491,-30.625 4.808,-45.329c10.313,-113.596 10.854,-226.962 -9.167,-339.742c-10.345,-58.35 -14.458,-62.758 -73.558,-72.895c-236.058,-40.542 -463.837,-13.23 -682.187,85.85c-174.705,79.27 -320.209,196.025 -436.563,348.366c-149.167,195.346 -229.233,415.954 -236.179,662.117c-1.354,48.371 1.3,96.842 1.596,145.262c0.037,6.425 -3.038,12.863 -4.984,20.505c-198.366,-127.83 -414.375,-467.725 -413.295,-842.034c1.091,-382.533 223.262,-731.421 469.72,-880.275c97.675,62.967 177.259,145.692 248.35,237.446c11.442,14.775 12.605,29.408 6.58,46.929c-10.692,31.125 -9.217,62.709 4.758,92.534c26.096,55.729 86.512,82.1 144.775,64.375c56.562,-17.205 93.437,-69.671 87.987,-127.413c-5.504,-58.35 -55.416,-109.879 -114.1,-110.783c-16.629,-0.242 -33.262,-0.034 -53.887,-0.034Z" style="fill:#fff;fill-rule:nonzero;stroke:#b1b0a4;stroke-width:34.71px;"/><path d="M14303.4,2850.7c20.625,0 37.258,-0.208 53.887,0.034c58.684,0.904 108.596,52.433 114.1,110.783c5.45,57.742 -31.425,110.208 -87.987,127.413c-58.263,17.725 -118.679,-8.646 -144.775,-64.375c-13.975,-29.825 -15.45,-61.409 -4.758,-92.534c6.025,-17.521 4.862,-32.154 -6.58,-46.929c-71.091,-91.754 -150.675,-174.479 -248.35,-237.446c-246.458,148.854 -468.629,497.742 -469.72,880.275c-1.08,374.309 214.929,714.204 413.295,842.034c1.946,-7.642 5.021,-14.08 4.984,-20.505c-0.296,-48.42 -2.95,-96.891 -1.596,-145.262c6.946,-246.163 87.012,-466.771 236.179,-662.117c116.354,-152.341 261.858,-269.096 436.563,-348.366c218.35,-99.08 446.129,-126.392 682.187,-85.85c59.1,10.137 63.213,14.545 73.558,72.895c20.021,112.78 19.48,226.146 9.167,339.742c-1.317,14.704 -3.104,29.375 -4.808,45.329c13.804,13.125 28.196,24.95 40.4,38.734c50.762,57.275 34.929,171.666 -61.596,196.945c-56.546,14.792 -116.079,-12.12 -140.679,-63.7c-26.404,-55.345 -10.779,-119.479 38.108,-154.15c12.083,-8.558 25.4,-15.362 39.375,-23.695c11.825,-25.142 11.892,-53.525 14.288,-80.921c7.466,-85.679 4.741,-171.234 -7.534,-256.409c-4.654,-32.412 -7.916,-36.7 -41.387,-42.045c-96.288,-15.384 -193.371,-16.13 -289.654,-4.325c-153.3,18.787 -297.242,66.962 -429.342,148.75c-192.429,119.15 -335.121,281.058 -427.204,488.3c-75.138,169.112 -99.863,345.954 -87.413,529.166c0.538,7.884 5.642,15.434 10.642,28.334c15.262,-16.113 26.825,-27.659 37.675,-39.846c95.087,-106.979 205.712,-194.392 333.229,-259.129c240.817,-122.275 494.425,-158.613 759.617,-105.85c253.366,50.416 465.346,174.233 637.033,366.77c30.9,34.667 58.833,72.167 86.108,109.842c29.08,40.158 28.788,50.538 1.684,90.138c-57.063,83.404 -122.725,159.27 -200.554,224.116c-15.746,13.109 -31.267,26.7 -48.246,38.038c-20.696,13.804 -27.829,28.837 -24.688,55.696c6.842,58.454 -26.025,106.075 -79.966,126.595c-65.434,24.896 -139.338,-13.487 -158.696,-82.395c-18.871,-67.221 20.937,-135.905 88.021,-150.746c23.854,-5.279 48.229,-7.034 71.3,3.558c15.4,7.067 28.891,4.95 41.72,-4.983c91.717,-71.059 175,-150.259 238.35,-248.542c0.955,-1.475 0.938,-3.592 1.909,-7.604c-15.834,-30.05 -39.217,-56.492 -62.325,-83.054c-234.15,-269.342 -530.575,-396.875 -885.938,-378.784c-233.75,11.892 -441.875,96.421 -622.241,247.517c-79.13,66.3 -147.309,141.996 -205.121,227.358c-65.017,96.025 -138.4,184.792 -227.204,260.055c-164.359,139.304 -351.667,229.929 -565.363,261.441c-407.5,60.05 -753.421,-61.891 -1037.57,-358.646c-39.671,-41.441 -70.937,-90.887 -106.787,-136.058c-19.288,-24.308 -17.171,-46.946 -0.246,-71.375c42.554,-61.354 87.9,-120.5 142.187,-171.908c43.196,-40.904 88.63,-79.446 135.313,-121.042c-0,-13.437 -0.121,-29.862 0.037,-46.267c0.521,-56.112 46.005,-107.779 94.755,-116.962c50.645,-9.55 92.275,4.55 124.204,44.237c31.441,39.096 35.033,94.2 9.129,136.388c-26.683,43.471 -66.354,64.429 -117.621,59.325c-18.229,-1.808 -36.042,-7.796 -56.579,-12.467c-99.479,72.379 -185.154,158.904 -255.85,259.6c138.925,233.646 461.717,467.763 872.292,473.542c357.5,5.054 687.966,-181.996 842.325,-405.554c-7.83,-12.588 -19.671,-6.809 -29.984,-5.975c-110.083,8.941 -219.337,5.087 -327.983,-16.838c-145.888,-29.446 -281.371,-83.387 -406.096,-165.037c-145.796,-95.45 -264.912,-216.75 -355.121,-365.588c-127.379,-210.175 -182.116,-438.541 -164.758,-683.804c3.021,-42.654 8.229,-85.192 13.925,-127.604c6.617,-49.288 17.346,-60.138 66.146,-67.55c123.975,-18.804 248.196,-25.296 372.779,-5.313c5.4,0.867 11.058,0.121 18.504,0.121c10.646,-11.804 20.958,-24.983 33.004,-36.283c37.813,-35.438 94.829,-43.267 140.279,-20.192c47.884,24.304 72.155,74.879 63.092,131.509c-7.867,49.254 -44.758,88.645 -94.758,97.537c-49.775,8.871 -92.242,-5.504 -123.142,-47.067c-8.821,-11.875 -15.296,-25.504 -22.85,-38.316c-77.879,-25.713 -221.333,-27.034 -364.912,-3.367c-14.009,9.792 -13.942,25.604 -15.867,40.017c-25.071,188.175 -8.004,371.962 62.1,549.096c68.492,173.02 173.958,320.208 318.092,438.42c157.741,129.375 337.516,208.784 540.208,236.859c81.787,11.337 163.246,11.821 245.121,5.225c9.183,-0.746 18.262,-3.004 27.291,-4.95c1.459,-0.313 2.467,-2.671 3.821,-4.25c6.371,-14.292 -5.521,-19.413 -13.666,-26.234c-90.292,-75.745 -172.205,-159.012 -237.605,-257.916c-110.104,-166.513 -174.375,-348.388 -190.9,-547.692c-13.3,-160.158 4.705,-316.321 55.817,-468.212c68.088,-202.292 183.383,-373.421 347.029,-511.042c31.304,-26.338 65.346,-49.342 97.259,-74.983c27.862,-22.359 54.983,-20.259 81.525,0.366c44.045,34.271 89.95,66.734 130.333,104.963c45.85,43.404 86.579,92.241 129.321,138.891c8.766,9.546 16.65,19.93 26.754,32.1m1216.35,2013.61c1.008,-22.396 -17.308,-42.692 -40.608,-45.038c-20.971,-2.1 -43.35,18.3 -44.6,40.642c-1.217,22.083 17.275,42.571 40.696,45.104c20.937,2.259 43.504,-18.383 44.512,-40.708m-1170.97,-1850.26c23.784,-1.216 43.071,-20.779 42.167,-42.758c-1.004,-24.292 -25.017,-44.583 -49.217,-41.583c-19.496,2.433 -36.096,22.346 -35.658,42.833c0.467,23.4 20.292,42.654 42.708,41.508m960.971,711.009c21.754,-1.546 40.363,-23.854 38.038,-45.609c-2.342,-21.858 -24.096,-39.791 -45.988,-37.9c-23.125,2.013 -40.087,22.363 -37.642,45.175c2.413,22.55 23.059,39.913 45.592,38.334m-2821.35,435.346c21.737,-0.05 42.692,-20.85 42.742,-42.38c0.037,-22.445 -19.546,-41.37 -42.917,-41.458c-22.325,-0.067 -43.975,20.471 -43.733,41.475c0.245,20.104 23.387,42.433 43.908,42.363m694.358,-949.255c22.204,0.105 42.829,-19.616 43.192,-41.266c0.35,-20.85 -21.092,-42.571 -42.117,-42.675c-23.75,-0.138 -41.491,17.604 -41.633,41.633c-0.154,24.775 16.546,42.204 40.558,42.308" style="fill:#afafa5;fill-rule:nonzero;"/><path d="M14303.4,2850.7c20.625,0 37.258,-0.208 53.887,0.034c58.684,0.904 108.596,52.433 114.1,110.783c5.45,57.742 -31.425,110.208 -87.987,127.413c-58.263,17.725 -118.679,-8.646 -144.775,-64.375c-13.975,-29.825 -15.45,-61.409 -4.758,-92.534c6.025,-17.521 4.862,-32.154 -6.58,-46.929c-71.091,-91.754 -150.675,-174.479 -248.35,-237.446c-246.458,148.854 -468.629,497.742 -469.72,880.275c-1.08,374.309 214.929,714.204 413.295,842.034c1.946,-7.642 5.021,-14.08 4.984,-20.505c-0.296,-48.42 -2.95,-96.891 -1.596,-145.262c6.946,-246.163 87.012,-466.771 236.179,-662.117c116.354,-152.341 261.858,-269.096 436.563,-348.366c218.35,-99.08 446.129,-126.392 682.187,-85.85c59.1,10.137 63.213,14.545 73.558,72.895c20.021,112.78 19.48,226.146 9.167,339.742c-1.317,14.704 -3.104,29.375 -4.808,45.329c13.804,13.125 28.196,24.95 40.4,38.734c50.762,57.275 34.929,171.666 -61.596,196.945c-56.546,14.792 -116.079,-12.12 -140.679,-63.7c-26.404,-55.345 -10.779,-119.479 38.108,-154.15c12.083,-8.558 25.4,-15.362 39.375,-23.695c11.825,-25.142 11.892,-53.525 14.288,-80.921c7.466,-85.679 4.741,-171.234 -7.534,-256.409c-4.654,-32.412 -7.916,-36.7 -41.387,-42.045c-96.288,-15.384 -193.371,-16.13 -289.654,-4.325c-153.3,18.787 -297.242,66.962 -429.342,148.75c-192.429,119.15 -335.121,281.058 -427.204,488.3c-75.138,169.112 -99.863,345.954 -87.413,529.166c0.538,7.884 5.642,15.434 10.642,28.334c15.262,-16.113 26.825,-27.659 37.675,-39.846c95.087,-106.979 205.712,-194.392 333.229,-259.129c240.817,-122.275 494.425,-158.613 759.617,-105.85c253.366,50.416 465.346,174.233 637.033,366.77c30.9,34.667 58.833,72.167 86.108,109.842c29.08,40.158 28.788,50.538 1.684,90.138c-57.063,83.404 -122.725,159.27 -200.554,224.116c-15.746,13.109 -31.267,26.7 -48.246,38.038c-20.696,13.804 -27.829,28.837 -24.688,55.696c6.842,58.454 -26.025,106.075 -79.966,126.595c-65.434,24.896 -139.338,-13.487 -158.696,-82.395c-18.871,-67.221 20.937,-135.905 88.021,-150.746c23.854,-5.279 48.229,-7.034 71.3,3.558c15.4,7.067 28.891,4.95 41.72,-4.983c91.717,-71.059 175,-150.259 238.35,-248.542c0.955,-1.475 0.938,-3.592 1.909,-7.604c-15.834,-30.05 -39.217,-56.492 -62.325,-83.054c-234.15,-269.342 -530.575,-396.875 -885.938,-378.784c-233.75,11.892 -441.875,96.421 -622.241,247.517c-79.13,66.3 -147.309,141.996 -205.121,227.358c-65.017,96.025 -138.4,184.792 -227.204,260.055c-164.359,139.304 -351.667,229.929 -565.363,261.441c-407.5,60.05 -753.421,-61.891 -1037.57,-358.646c-39.671,-41.441 -70.937,-90.887 -106.787,-136.058c-19.288,-24.308 -17.171,-46.946 -0.246,-71.375c42.554,-61.354 87.9,-120.5 142.187,-171.908c43.196,-40.904 88.63,-79.446 135.313,-121.042c-0,-13.437 -0.121,-29.862 0.037,-46.267c0.521,-56.112 46.005,-107.779 94.755,-116.962c50.645,-9.55 92.275,4.55 124.204,44.237c31.441,39.096 35.033,94.2 9.129,136.388c-26.683,43.471 -66.354,64.429 -117.621,59.325c-18.229,-1.808 -36.042,-7.796 -56.579,-12.467c-99.479,72.379 -185.154,158.904 -255.85,259.6c138.925,233.646 461.717,467.763 872.292,473.542c357.5,5.054 687.966,-181.996 842.325,-405.554c-7.83,-12.588 -19.671,-6.809 -29.984,-5.975c-110.083,8.941 -219.337,5.087 -327.983,-16.838c-145.888,-29.446 -281.371,-83.387 -406.096,-165.037c-145.796,-95.45 -264.912,-216.75 -355.121,-365.588c-127.379,-210.175 -182.116,-438.541 -164.758,-683.804c3.021,-42.654 8.229,-85.192 13.925,-127.604c6.617,-49.288 17.346,-60.138 66.146,-67.55c123.975,-18.804 248.196,-25.296 372.779,-5.313c5.4,0.867 11.058,0.121 18.504,0.121c10.646,-11.804 20.958,-24.983 33.004,-36.283c37.813,-35.438 94.829,-43.267 140.279,-20.192c47.884,24.304 72.155,74.879 63.092,131.509c-7.867,49.254 -44.758,88.645 -94.758,97.537c-49.775,8.871 -92.242,-5.504 -123.142,-47.067c-8.821,-11.875 -15.296,-25.504 -22.85,-38.316c-77.879,-25.713 -221.333,-27.034 -364.912,-3.367c-14.009,9.792 -13.942,25.604 -15.867,40.017c-25.071,188.175 -8.004,371.962 62.1,549.096c68.492,173.02 173.958,320.208 318.092,438.42c157.741,129.375 337.516,208.784 540.208,236.859c81.787,11.337 163.246,11.821 245.121,5.225c9.183,-0.746 18.262,-3.004 27.291,-4.95c1.459,-0.313 2.467,-2.671 3.821,-4.25c6.371,-14.292 -5.521,-19.413 -13.666,-26.234c-90.292,-75.745 -172.205,-159.012 -237.605,-257.916c-110.104,-166.513 -174.375,-348.388 -190.9,-547.692c-13.3,-160.158 4.705,-316.321 55.817,-468.212c68.088,-202.292 183.383,-373.421 347.029,-511.042c31.304,-26.338 65.346,-49.342 97.259,-74.983c27.862,-22.359 54.983,-20.259 81.525,0.366c44.045,34.271 89.95,66.734 130.333,104.963c45.85,43.404 86.579,92.241 129.321,138.891c8.766,9.546 16.65,19.93 26.754,32.1Zm1216.35,2013.61c1.008,-22.396 -17.308,-42.692 -40.608,-45.038c-20.971,-2.1 -43.35,18.3 -44.6,40.642c-1.217,22.083 17.275,42.571 40.696,45.104c20.937,2.259 43.504,-18.383 44.512,-40.708Zm-1170.97,-1850.26c23.784,-1.216 43.071,-20.779 42.167,-42.758c-1.004,-24.292 -25.017,-44.583 -49.217,-41.583c-19.496,2.433 -36.096,22.346 -35.658,42.833c0.467,23.4 20.292,42.654 42.708,41.508Zm960.971,711.009c21.754,-1.546 40.363,-23.854 38.038,-45.609c-2.342,-21.858 -24.096,-39.791 -45.988,-37.9c-23.125,2.013 -40.087,22.363 -37.642,45.175c2.413,22.55 23.059,39.913 45.592,38.334Zm-2821.35,435.346c21.737,-0.05 42.692,-20.85 42.742,-42.38c0.037,-22.445 -19.546,-41.37 -42.917,-41.458c-22.325,-0.067 -43.975,20.471 -43.733,41.475c0.245,20.104 23.387,42.433 43.908,42.363Zm694.358,-949.255c22.204,0.105 42.829,-19.616 43.192,-41.266c0.35,-20.85 -21.092,-42.571 -42.117,-42.675c-23.75,-0.138 -41.491,17.604 -41.633,41.633c-0.154,24.775 16.546,42.204 40.558,42.308Z" style="fill:none;fill-rule:nonzero;stroke:#b1b0a4;stroke-width:34.71px;"/></g><g><rect x="17882.6" y="9397.12" width="110.844" height="969.852" style="fill:#afafa5;"/><path d="M18111.2,10006.8c0,-256.316 167.641,-374.076 346.372,-374.076c178.733,0 346.374,117.76 346.374,374.076c0,256.318 -167.641,374.089 -346.374,374.089c-178.731,-0 -346.372,-117.771 -346.372,-374.089m346.372,279.866c124.697,0 239.694,-85.89 239.694,-279.866c-0,-193.963 -114.997,-281.259 -239.694,-281.259c-126.076,0 -241.073,87.296 -241.073,281.259c0,193.976 114.997,279.866 241.073,279.866" style="fill:#afafa5;fill-rule:nonzero;"/><path d="M18971.6,10198l-0,-461.374l-116.378,0l-0,-90.056l116.378,0l-0,-180.112l110.844,-0l-0,180.112l142.7,0l0,90.056l-142.7,0l-0,440.595c-0,77.587 26.322,108.062 103.907,108.062c18.016,-0 30.474,-0 49.883,-2.761l0,85.89c-24.94,5.545 -51.262,8.319 -80.358,8.319c-108.073,0 -184.276,-45.72 -184.276,-178.733" style="fill:#afafa5;fill-rule:nonzero;"/><path d="M19642.2,10286.6c120.531,-0 203.66,-72.04 211.979,-196.737l1.393,-443.365l110.833,-0l-1.382,720.46l-110.844,0l0,-141.318l-2.774,-0c-12.468,48.488 -81.737,155.18 -247.999,155.18c-142.711,-0 -257.697,-77.596 -257.697,-289.575l1.382,-444.747l110.833,-0l-1.382,422.577c0,137.167 58.189,217.525 185.658,217.525" style="fill:#afafa5;fill-rule:nonzero;"/><path d="M20078.6,10161.9l99.754,-0c13.861,98.375 103.917,131.621 198.126,131.621c98.375,-0 177.341,-36.02 177.341,-126.076c0,-70.661 -48.491,-94.22 -126.076,-112.226l-135.776,-31.867c-127.468,-30.485 -191.203,-95.601 -191.203,-193.973c0.003,-127.458 108.073,-196.737 271.561,-196.737c162.099,-0 268.777,69.279 277.096,213.372l-94.209,-0c-15.243,-94.223 -83.133,-126.09 -182.887,-126.09c-105.299,0 -163.488,34.641 -163.488,109.455c0,55.426 33.249,90.056 120.531,109.462l134.395,31.856c119.15,27.715 203.674,73.432 203.674,195.366c0,157.946 -144.092,214.754 -292.348,214.754c-164.87,-0 -289.567,-67.898 -296.491,-218.917" style="fill:#afafa5;fill-rule:nonzero;"/><path d="M17917,10559.2l110.844,0l-0,160.717l2.76,0c19.398,-74.813 87.296,-169.022 227.222,-169.022c18.017,-0 37.412,1.381 54.037,6.926l-0,94.209c-18.003,-2.763 -34.628,-4.153 -52.644,-4.153c-145.483,0 -231.375,98.373 -231.375,252.163l-0,379.621l-110.844,-0l-0,-720.461Z" style="fill:#afafa5;fill-rule:nonzero;"/><path d="M18360.3,10920.8c-0,-261.85 152.409,-375.468 336.674,-375.468c185.657,-0 321.434,116.378 321.434,357.464c-0,23.549 -1.382,37.402 -4.153,51.263l-547.264,-0c8.306,169.022 91.438,250.773 236.909,250.773c88.675,0 169.034,-29.096 203.675,-127.468l101.135,-0c-47.099,159.335 -169.022,216.143 -306.191,216.143c-198.127,-0 -342.219,-119.163 -342.219,-372.707m551.427,-51.263c-1.381,-151.019 -83.129,-236.92 -216.132,-236.92c-126.076,-0 -217.525,76.203 -228.604,236.92l444.736,-0Z" style="fill:#afafa5;fill-rule:nonzero;"/><path d="M19039.2,10559.2l112.225,0l234.149,615.162l4.163,-0l232.757,-615.162l113.618,0l-279.877,720.461l-138.548,-0l-278.487,-720.461Z" style="fill:#afafa5;fill-rule:nonzero;"/><path d="M19756.9,10920.8c-0,-261.85 152.411,-375.468 336.677,-375.468c185.657,-0 321.431,116.378 321.431,357.464c-0,23.549 -1.382,37.402 -4.153,51.263l-547.264,-0c8.308,169.022 91.438,250.773 236.923,250.773c88.664,0 169.022,-29.096 203.661,-127.468l101.146,-0c-47.11,159.335 -169.033,216.143 -306.199,216.143c-198.129,-0 -342.222,-119.163 -342.222,-372.707m551.427,-51.263c-1.379,-151.019 -83.119,-236.92 -216.132,-236.92c-126.076,-0 -217.524,76.203 -228.604,236.92l444.736,-0Z" style="fill:#afafa5;fill-rule:nonzero;"/><path d="M20855.6,10639.5c-127.468,-0 -211.98,80.358 -211.98,217.524l0,422.578l-110.843,-0l-0,-720.461l110.843,0l0,141.319l2.764,0c12.482,-48.489 81.748,-155.169 248.01,-155.169c142.7,-0 257.697,77.585 257.697,289.564l-0,444.747l-110.833,-0l-0,-422.578c-0,-137.166 -58.19,-217.524 -185.658,-217.524" style="fill:#afafa5;fill-rule:nonzero;"/><path d="M21594.1,11199.3c120.531,0 203.663,-72.053 211.979,-196.747l1.393,-443.358l110.833,0l-1.392,720.461l-110.834,-0l0,-141.319l-2.771,0c-12.471,48.492 -81.74,155.172 -248.002,155.172c-142.711,0 -257.708,-77.587 -257.708,-289.567l1.393,-444.747l110.833,0l-1.382,422.581c0,137.166 58.19,217.524 185.658,217.524" style="fill:#afafa5;fill-rule:nonzero;"/><path d="M22037.4,10920.8c0,-261.85 152.409,-375.468 336.674,-375.468c185.658,-0 321.434,116.378 321.434,357.464c0,23.549 -1.382,37.402 -4.153,51.263l-547.264,-0c8.306,169.022 91.438,250.773 236.91,250.773c88.674,0 169.033,-29.096 203.674,-127.468l101.135,-0c-47.099,159.335 -169.022,216.143 -306.191,216.143c-198.126,-0 -342.219,-119.163 -342.219,-372.707m551.428,-51.263c-1.382,-151.019 -83.13,-236.92 -216.133,-236.92c-126.089,-0 -217.524,76.203 -228.604,236.92l444.737,-0Z" style="fill:#afafa5;fill-rule:nonzero;"/></g><path d="M14119.7,9454.09c21.115,0 38.147,-0.228 55.164,0.048c60.04,0.921 111.135,53.639 116.75,113.359c5.583,59.104 -32.144,112.777 -90.037,130.39c-59.627,18.155 -121.464,-8.852 -148.162,-65.869c-14.3,-30.535 -15.802,-62.849 -4.861,-94.703c6.149,-17.934 4.971,-32.896 -6.754,-48.024c-72.759,-93.904 -154.191,-178.572 -254.138,-243.016c-252.223,152.334 -479.589,509.398 -480.708,900.883c-1.105,383.056 219.953,730.917 422.951,861.724c1.982,-7.826 5.126,-14.41 5.097,-20.991c-0.291,-49.544 -3.023,-99.151 -1.628,-148.637c7.119,-251.928 89.055,-477.7 241.713,-677.613c119.052,-155.925 267.977,-275.408 446.763,-356.53c223.455,-101.39 456.573,-129.333 698.147,-87.857c60.485,10.388 64.687,14.899 75.292,74.615c20.468,115.403 19.93,231.431 9.372,347.692c-1.362,15.054 -3.174,30.06 -4.923,46.385c14.13,13.441 28.86,25.531 41.336,39.631c51.953,58.615 35.765,175.69 -63.034,201.559c-57.859,15.143 -118.79,-12.399 -143.971,-65.195c-27.004,-56.637 -11.029,-122.278 39.005,-157.752c12.366,-8.76 25.991,-15.728 40.294,-24.256c12.09,-25.734 12.182,-54.778 14.623,-82.813c7.656,-87.673 4.847,-175.24 -7.704,-262.409c-4.772,-33.161 -8.101,-37.561 -42.363,-43.041c-98.541,-15.743 -197.891,-16.479 -296.428,-4.404c-156.89,19.226 -304.191,68.509 -439.387,152.228c-196.922,121.92 -342.949,287.619 -437.192,499.717c-76.902,173.078 -102.205,354.045 -89.452,541.558c0.552,8.058 5.767,15.791 10.878,28.986c15.621,-16.48 27.464,-28.308 38.56,-40.784c97.31,-109.463 210.515,-198.934 341.016,-265.186c246.452,-125.146 506.007,-162.321 777.394,-108.328c259.297,51.599 476.241,178.311 651.927,375.34c31.64,35.489 60.209,73.879 88.137,112.424c29.751,41.089 29.46,51.724 1.734,92.247c-58.415,85.357 -125.607,162.999 -205.27,229.358c-16.097,13.412 -31.976,27.328 -49.361,38.928c-21.174,14.133 -28.495,29.508 -25.273,57.002c7.011,59.811 -26.636,108.56 -81.829,129.565c-66.974,25.454 -142.606,-13.809 -162.414,-84.344c-19.318,-68.771 21.421,-139.078 90.071,-154.268c24.411,-5.402 49.375,-7.181 72.972,3.635c15.776,7.243 29.586,5.081 42.688,-5.079c93.875,-72.729 179.107,-153.774 243.937,-254.37c0.98,-1.502 0.965,-3.667 1.963,-7.762c-16.218,-30.764 -40.139,-57.831 -63.785,-85.022c-239.625,-275.637 -542.987,-406.149 -906.665,-387.644c-239.227,12.182 -452.227,98.691 -636.784,253.324c-81.001,67.85 -150.77,145.323 -209.933,232.676c-66.547,98.261 -141.641,189.097 -232.522,266.139c-168.198,142.558 -359.888,235.313 -578.586,267.535c-417.03,61.48 -771.041,-63.324 -1061.84,-367.025c-40.6,-42.412 -72.59,-92.999 -109.294,-139.247c-19.731,-24.857 -17.569,-48.039 -0.243,-73.021c43.546,-62.802 89.96,-123.331 145.518,-175.947c44.205,-41.859 90.697,-81.306 138.478,-123.869c-0,-13.75 -0.136,-30.55 0.018,-47.353c0.553,-57.433 47.103,-110.292 96.972,-119.697c51.846,-9.773 94.456,4.666 127.109,45.266c32.189,40.014 35.857,96.419 9.358,139.582c-27.31,44.496 -67.91,65.946 -120.386,60.714c-18.644,-1.842 -36.873,-7.991 -57.892,-12.764c-101.807,74.077 -189.499,162.627 -261.842,265.679c142.175,239.117 472.526,478.709 892.701,484.634c365.858,5.155 704.068,-186.258 862.033,-415.053c-8.024,-12.889 -20.132,-6.978 -30.672,-6.12c-112.67,9.143 -224.497,5.218 -335.661,-17.231c-149.312,-30.138 -287.958,-85.327 -415.605,-168.891c-149.201,-97.679 -271.111,-221.824 -363.417,-374.144c-130.361,-215.088 -186.398,-448.807 -168.63,-699.785c3.101,-43.652 8.426,-87.213 14.255,-130.589c6.765,-50.451 17.768,-61.561 67.696,-69.139c126.877,-19.26 254.002,-25.889 381.494,-5.432c5.524,0.887 11.309,0.107 18.936,0.107c10.892,-12.075 21.45,-25.564 33.787,-37.116c38.696,-36.273 97.049,-44.283 143.57,-20.685c48.992,24.886 73.82,76.64 64.569,134.596c-8.057,50.421 -45.832,90.711 -96.99,99.825c-50.926,9.071 -94.409,-5.63 -126.019,-48.178c-9.023,-12.152 -15.666,-26.102 -23.399,-39.219c-79.697,-26.285 -226.504,-27.648 -373.437,-3.435c-14.347,10.034 -14.27,26.204 -16.236,40.949c-25.652,192.581 -8.194,380.666 63.557,561.937c70.074,177.085 178.016,327.7 325.534,448.686c161.416,132.401 345.405,213.663 552.838,242.401c83.7,11.6 167.061,12.09 250.857,5.34c9.39,-0.751 18.688,-3.068 27.939,-5.063c1.473,-0.325 2.515,-2.748 3.896,-4.357c6.522,-14.608 -5.66,-19.841 -13.975,-26.838c-92.417,-77.517 -176.242,-162.738 -243.171,-263.944c-112.686,-170.409 -178.448,-356.545 -195.373,-560.509c-13.596,-163.905 4.817,-323.726 57.127,-479.158c69.673,-207.035 187.669,-382.168 355.146,-523.009c32.038,-26.927 66.885,-50.495 99.534,-76.718c28.525,-22.895 56.269,-20.762 83.428,0.368c45.078,35.061 92.063,68.296 133.399,107.423c46.919,44.418 88.594,94.379 132.339,142.126c8.978,9.777 17.046,20.394 27.372,32.852Zm1244.8,2060.71c1.027,-22.909 -17.709,-43.682 -41.554,-46.076c-21.465,-2.15 -44.374,18.733 -45.63,41.594c-1.244,22.589 17.676,43.565 41.642,46.157c21.436,2.316 44.511,-18.814 45.542,-41.675Zm-1198.35,-1893.54c24.349,-1.256 44.084,-21.267 43.148,-43.76c-1.031,-24.857 -25.593,-45.619 -50.358,-42.548c-19.948,2.471 -36.936,22.862 -36.505,43.822c0.49,23.952 20.777,43.668 43.715,42.486Zm983.446,727.635c22.264,-1.579 41.307,-24.396 38.928,-46.661c-2.394,-22.386 -24.658,-40.739 -47.074,-38.788c-23.645,2.055 -41.001,22.876 -38.497,46.216c2.467,23.089 23.598,40.857 46.643,39.233Zm-2887.36,445.537c22.25,-0.059 43.701,-21.325 43.749,-43.376c0.044,-22.968 -20.011,-42.349 -43.914,-42.427c-22.85,-0.077 -45.004,20.961 -44.761,42.456c0.246,20.563 23.921,43.424 44.926,43.347Zm710.605,-971.463c22.724,0.107 43.851,-20.069 44.205,-42.227c0.353,-21.34 -21.573,-43.56 -43.101,-43.682c-24.304,-0.121 -42.455,18.03 -42.61,42.61c-0.151,25.362 16.94,43.193 41.506,43.299Z" style="fill:none;fill-rule:nonzero;stroke:#b1b0a4;stroke-width:26.59px;"/><g><rect x="16393.3" y="12690.4" width="132.755" height="1161.56" style="fill:#afafa5;"/><path d="M16667.1,13420.6c0,-306.982 200.779,-448.02 414.84,-448.02c214.064,0 414.843,141.038 414.843,448.02c-0,306.985 -200.779,448.035 -414.843,448.035c-214.061,0 -414.84,-141.05 -414.84,-448.035m414.84,335.188c149.346,-0 287.074,-102.868 287.074,-335.188c0,-232.304 -137.728,-336.856 -287.074,-336.856c-150.998,0 -288.726,104.552 -288.726,336.856c-0,232.32 137.728,335.188 288.726,335.188" style="fill:#afafa5;fill-rule:nonzero;"/><path d="M17697.5,13649.6l0,-552.575l-139.383,0l0,-107.857l139.383,-0l0,-215.716l132.755,-0l-0,215.716l170.908,-0l-0,107.857l-170.908,0l-0,527.687c-0,92.924 31.525,129.423 124.446,129.423c21.578,0 36.499,0 59.744,-3.306l0,102.868c-29.87,6.641 -61.396,9.963 -96.243,9.963c-129.436,0 -220.702,-54.757 -220.702,-214.064" style="fill:#afafa5;fill-rule:nonzero;"/><path d="M18500.7,13755.8c144.357,0 243.919,-86.28 253.882,-235.626l1.668,-531.006l132.742,0l-1.655,862.875l-132.755,0l0,-169.253l-3.322,-0c-14.934,58.073 -97.894,185.854 -297.022,185.854c-170.921,0 -308.636,-92.933 -308.636,-346.815l1.655,-532.661l132.741,0l-1.654,506.109c-0,164.28 69.691,260.523 222.356,260.523" style="fill:#afafa5;fill-rule:nonzero;"/><path d="M19023.4,13606.4l119.472,0c16.601,117.821 124.459,157.639 237.29,157.639c117.821,0 212.397,-43.14 212.397,-150.997c-0,-84.629 -58.077,-112.845 -150.998,-134.41l-162.615,-38.166c-152.665,-36.512 -228.998,-114.499 -228.998,-232.317c0.003,-152.652 129.436,-235.626 325.241,-235.626c194.141,0 321.906,82.974 331.869,255.55l-112.832,-0c-18.255,-112.848 -99.565,-151.014 -219.037,-151.014c-126.114,-0 -195.805,41.488 -195.805,131.09c-0,66.382 39.821,107.858 144.356,131.1l160.961,38.154c142.702,33.192 243.935,87.947 243.935,233.984c-0,189.167 -172.576,257.204 -350.138,257.204c-197.46,-0 -346.806,-81.319 -355.098,-262.191" style="fill:#afafa5;fill-rule:nonzero;"/><path d="M16434.5,14082.2l132.754,-0l0,192.486l3.307,0c23.232,-89.602 104.551,-202.433 272.137,-202.433c21.578,-0 44.808,1.654 64.718,8.295l0,112.832c-21.562,-3.31 -41.472,-4.974 -63.05,-4.974c-174.24,0 -277.112,117.818 -277.112,302.008l0,454.661l-132.754,-0l-0,-862.875Z" style="fill:#afafa5;fill-rule:nonzero;"/><path d="M16965.5,14515.3c0,-313.61 182.536,-449.687 403.225,-449.687c222.357,0 384.972,139.383 384.972,428.125c0,28.203 -1.654,44.795 -4.973,61.396l-655.443,0c9.948,202.433 109.513,300.344 283.74,300.344c106.203,-0 202.446,-34.847 243.935,-152.665l121.127,-0c-56.41,190.831 -202.434,258.868 -366.717,258.868c-237.29,0 -409.866,-142.718 -409.866,-446.381m660.429,-61.395c-1.654,-180.872 -99.562,-283.753 -258.855,-283.753c-150.998,0 -260.523,91.266 -273.793,283.753l532.648,-0Z" style="fill:#afafa5;fill-rule:nonzero;"/><path d="M17778.5,14082.2l134.41,-0l280.433,736.761l4.987,0l278.766,-736.761l136.076,-0l-335.2,862.875l-165.935,-0l-333.537,-862.875Z" style="fill:#afafa5;fill-rule:nonzero;"/><path d="M18638.1,14515.3c0,-313.61 182.539,-449.687 403.228,-449.687c222.357,0 384.969,139.383 384.969,428.125c0,28.203 -1.654,44.795 -4.973,61.396l-655.443,0c9.951,202.433 109.513,300.344 283.756,300.344c106.19,-0 202.433,-34.847 243.918,-152.665l121.14,-0c-56.422,190.831 -202.446,258.868 -366.726,258.868c-237.293,0 -409.869,-142.718 -409.869,-446.381m660.429,-61.395c-1.652,-180.872 -99.549,-283.753 -258.856,-283.753c-150.997,0 -260.522,91.266 -273.792,283.753l532.648,-0Z" style="fill:#afafa5;fill-rule:nonzero;"/><path d="M19954,14178.4c-152.665,-0 -253.882,96.243 -253.882,260.523l0,506.109l-132.755,-0l0,-862.875l132.755,-0l0,169.253l3.309,0c14.95,-58.073 97.908,-185.842 297.035,-185.842c170.908,0 308.637,92.921 308.637,346.803l-0,532.661l-132.742,-0l-0,-506.109c-0,-164.28 -69.692,-260.523 -222.357,-260.523" style="fill:#afafa5;fill-rule:nonzero;"/><path d="M20838.4,14848.8c144.356,0 243.922,-86.296 253.882,-235.639l1.667,-530.996l132.742,0l-1.667,862.875l-132.742,0l-0,-169.253l-3.319,-0c-14.937,58.076 -97.898,185.845 -297.025,185.845c-170.921,-0 -308.65,-92.924 -308.65,-346.806l1.668,-532.661l132.742,0l-1.655,506.112c0,164.28 69.692,260.523 222.357,260.523" style="fill:#afafa5;fill-rule:nonzero;"/><path d="M21369.4,14515.3c0,-313.61 182.536,-449.687 403.225,-449.687c222.357,0 384.972,139.383 384.972,428.125c0,28.203 -1.654,44.795 -4.973,61.396l-655.443,0c9.948,202.433 109.513,300.344 283.74,300.344c106.203,-0 202.446,-34.847 243.935,-152.665l121.127,-0c-56.41,190.831 -202.434,258.868 -366.717,258.868c-237.29,0 -409.866,-142.718 -409.866,-446.381m660.429,-61.395c-1.655,-180.872 -99.562,-283.753 -258.855,-283.753c-151.014,0 -260.523,91.266 -273.793,283.753l532.648,-0Z" style="fill:#afafa5;fill-rule:nonzero;"/></g><path d="M14202.4,12901.6c21.116,0 38.147,-0.228 55.164,0.048c60.04,0.921 111.135,53.64 116.751,113.359c5.582,59.105 -32.145,112.777 -90.038,130.391c-59.627,18.155 -121.464,-8.853 -148.162,-65.869c-14.299,-30.536 -15.802,-62.85 -4.861,-94.704c6.15,-17.934 4.971,-32.896 -6.754,-48.023c-72.759,-93.905 -154.191,-178.573 -254.138,-243.017c-252.223,152.335 -479.589,509.399 -480.708,900.883c-1.105,383.056 219.953,730.917 422.952,861.724c1.981,-7.825 5.126,-14.41 5.096,-20.99c-0.291,-49.545 -3.023,-99.152 -1.627,-148.638c7.118,-251.928 89.054,-477.699 241.713,-677.612c119.052,-155.925 267.976,-275.408 446.763,-356.53c223.455,-101.391 456.573,-129.334 698.146,-87.858c60.485,10.388 64.687,14.9 75.293,74.615c20.467,115.403 19.929,231.432 9.372,347.692c-1.363,15.055 -3.175,30.061 -4.924,46.385c14.13,13.442 28.86,25.531 41.336,39.632c51.953,58.614 35.765,175.689 -63.033,201.558c-57.86,15.143 -118.791,-12.399 -143.972,-65.195c-27.004,-56.637 -11.029,-122.278 39.005,-157.751c12.366,-8.761 25.991,-15.728 40.294,-24.257c12.09,-25.734 12.182,-54.778 14.624,-82.813c7.656,-87.673 4.846,-175.24 -7.704,-262.408c-4.773,-33.161 -8.102,-37.562 -42.364,-43.042c-98.54,-15.742 -197.891,-16.479 -296.428,-4.404c-156.89,19.226 -304.19,68.51 -439.387,152.228c-196.922,121.921 -342.949,287.619 -437.192,499.717c-76.902,173.079 -102.204,354.045 -89.452,541.559c0.553,8.057 5.767,15.79 10.878,28.985c15.622,-16.479 27.465,-28.308 38.56,-40.784c97.311,-109.463 210.515,-198.933 341.016,-265.185c246.452,-125.147 506.007,-162.322 777.394,-108.329c259.297,51.599 476.241,178.311 651.927,375.34c31.64,35.489 60.209,73.879 88.137,112.424c29.751,41.09 29.46,51.725 1.735,92.247c-58.416,85.357 -125.607,162.999 -205.271,229.358c-16.096,13.412 -31.975,27.328 -49.361,38.928c-21.174,14.134 -28.495,29.508 -25.273,57.002c7.012,59.811 -26.635,108.56 -81.829,129.566c-66.974,25.453 -142.605,-13.81 -162.414,-84.345c-19.318,-68.771 21.422,-139.077 90.071,-154.268c24.411,-5.402 49.375,-7.181 72.973,3.635c15.776,7.243 29.585,5.082 42.688,-5.078c93.874,-72.73 179.106,-153.775 243.937,-254.37c0.979,-1.503 0.965,-3.668 1.963,-7.763c-16.218,-30.764 -40.14,-57.83 -63.785,-85.022c-239.625,-275.636 -542.987,-406.148 -906.665,-387.644c-239.228,12.182 -452.228,98.692 -636.785,253.324c-81,67.851 -150.769,145.323 -209.933,232.676c-66.547,98.261 -141.64,189.098 -232.521,266.14c-168.199,142.557 -359.889,235.312 -578.586,267.534c-417.031,61.48 -771.042,-63.324 -1061.84,-367.025c-40.6,-42.412 -72.59,-92.998 -109.294,-139.247c-19.731,-24.857 -17.569,-48.038 -0.243,-73.021c43.546,-62.801 89.961,-123.331 145.519,-175.947c44.205,-41.859 90.696,-81.306 138.477,-123.868c0,-13.751 -0.136,-30.551 0.018,-47.354c0.553,-57.432 47.104,-110.291 96.972,-119.696c51.846,-9.774 94.457,4.665 127.11,45.265c32.188,40.014 35.856,96.419 9.357,139.582c-27.31,44.496 -67.909,65.947 -120.385,60.714c-18.645,-1.841 -36.873,-7.991 -57.893,-12.764c-101.807,74.078 -189.499,162.628 -261.842,265.679c142.175,239.117 472.526,478.709 892.701,484.634c365.858,5.156 704.068,-186.258 862.033,-415.053c-8.024,-12.889 -20.132,-6.978 -30.672,-6.12c-112.67,9.144 -224.497,5.218 -335.661,-17.231c-149.311,-30.137 -287.958,-85.327 -415.605,-168.891c-149.201,-97.679 -271.111,-221.824 -363.417,-374.144c-130.361,-215.088 -186.398,-448.806 -168.629,-699.785c3.1,-43.652 8.425,-87.213 14.255,-130.589c6.764,-50.45 17.768,-61.561 67.695,-69.139c126.878,-19.26 254.002,-25.888 381.494,-5.432c5.524,0.888 11.309,0.107 18.936,0.107c10.893,-12.075 21.45,-25.564 33.787,-37.116c38.696,-36.273 97.049,-44.282 143.57,-20.685c48.992,24.887 73.82,76.641 64.569,134.596c-8.057,50.421 -45.832,90.712 -96.99,99.826c-50.925,9.07 -94.408,-5.631 -126.019,-48.179c-9.022,-12.152 -15.666,-26.101 -23.399,-39.218c-79.697,-26.286 -226.504,-27.649 -373.436,-3.436c-14.348,10.035 -14.27,26.205 -16.237,40.949c-25.652,192.581 -8.193,380.666 63.557,561.938c70.074,177.085 178.016,327.7 325.534,448.685c161.416,132.401 345.406,213.663 552.838,242.402c83.7,11.6 167.061,12.089 250.857,5.339c9.39,-0.751 18.689,-3.067 27.939,-5.063c1.473,-0.324 2.515,-2.747 3.896,-4.357c6.522,-14.608 -5.66,-19.841 -13.975,-26.838c-92.416,-77.517 -176.241,-162.738 -243.171,-263.944c-112.685,-170.409 -178.448,-356.545 -195.372,-560.509c-13.596,-163.905 4.816,-323.726 57.126,-479.158c69.674,-207.035 187.669,-382.168 355.146,-523.009c32.038,-26.927 66.886,-50.495 99.535,-76.718c28.525,-22.894 56.269,-20.762 83.427,0.368c45.078,35.061 92.063,68.296 133.399,107.423c46.919,44.418 88.594,94.379 132.339,142.127c8.978,9.777 17.046,20.393 27.372,32.851Zm1244.8,2060.71c1.028,-22.909 -17.709,-43.682 -41.553,-46.075c-21.466,-2.151 -44.375,18.733 -45.63,41.594c-1.245,22.588 17.676,43.564 41.642,46.156c21.435,2.317 44.51,-18.814 45.541,-41.675Zm-1198.35,-1893.54c24.348,-1.256 44.083,-21.267 43.148,-43.759c-1.031,-24.857 -25.594,-45.619 -50.359,-42.548c-19.948,2.471 -36.935,22.861 -36.504,43.822c0.489,23.951 20.776,43.667 43.715,42.485Zm983.445,727.636c22.265,-1.58 41.307,-24.397 38.928,-46.661c-2.394,-22.386 -24.658,-40.74 -47.073,-38.788c-23.646,2.054 -41.002,22.875 -38.498,46.215c2.468,23.09 23.598,40.858 46.643,39.234Zm-2887.35,445.536c22.249,-0.059 43.7,-21.325 43.748,-43.376c0.044,-22.968 -20.011,-42.349 -43.914,-42.426c-22.85,-0.078 -45.004,20.961 -44.761,42.455c0.247,20.564 23.922,43.425 44.927,43.347Zm710.604,-971.462c22.725,0.107 43.851,-20.07 44.205,-42.228c0.353,-21.34 -21.572,-43.56 -43.1,-43.682c-24.305,-0.121 -42.456,18.03 -42.611,42.611c-0.151,25.361 16.94,43.192 41.506,43.299Z" style="fill:none;fill-rule:nonzero;stroke:#b1b0a4;stroke-width:26.59px;"/></svg>