<?xml version="1.0" encoding="UTF-8" standalone="no"?>
<svg
   width="141.99985"
   height="91.992485"
   viewBox="0 0 141.99985 91.992485"
   fill="none"
   version="1.1"
   id="svg8"
   sodipodi:docname="09318df9c6cf5f9e07bcc19f8a078ce3.svg"
   xmlns:inkscape="http://www.inkscape.org/namespaces/inkscape"
   xmlns:sodipodi="http://sodipodi.sourceforge.net/DTD/sodipodi-0.dtd"
   xmlns="http://www.w3.org/2000/svg"
   xmlns:svg="http://www.w3.org/2000/svg">
  <defs
     id="defs12" />
  <sodipodi:namedview
     id="namedview10"
     pagecolor="#ffffff"
     bordercolor="#666666"
     borderopacity="1.0"
     inkscape:pageshadow="2"
     inkscape:pageopacity="0.0"
     inkscape:pagecheckerboard="0" />
  <path
     d="m 82.642739,11.999441 c 0.751,0 1.3567,-0.0075 1.9622,0.0012 2.1368,0.0325 3.9543,1.8836 4.1547,3.9797 0.1984,2.0743 -1.1443,3.9592 -3.2039,4.5772 -2.1215,0.6368 -4.3214,-0.3106 -5.2716,-2.3126 -0.5089,-1.0714 -0.5626,-2.206 -0.1733,-3.3242 0.2194,-0.6294 0.1771,-1.1551 -0.2396,-1.6858 -2.5886,-3.2962003 -5.4865,-6.2680303 -9.0431,-8.5300403 -8.9742,5.3474403 -17.0641,17.8808403 -17.1038,31.6229403 -0.0393,13.4466 7.8262,25.657 15.0492,30.2491 0.0709,-0.2745 0.1828,-0.5058 0.1815,-0.7366 -0.0108,-1.7394 -0.1074,-3.4807 -0.0581,-5.2184 0.2529,-8.8431 3.1683,-16.7682 8.5999,-23.7858 4.2368,-5.4727 9.535,-9.667 15.8965,-12.5147 7.950601,-3.5593 16.244601,-4.5405 24.840601,-3.084 2.152,0.3641 2.301,0.5225 2.678,2.6187 0.729,4.0514 0.709,8.124 0.334,12.2048 -0.048,0.5282 -0.113,1.0553 -0.175,1.6284 0.502,0.4715 1.027,0.8963 1.471,1.3915 1.848,2.0575 1.272,6.1669 -2.243,7.075 -2.059,0.5314 -4.227,-0.4354 -5.122,-2.2883 -0.962,-1.9883 -0.393,-4.2922 1.387,-5.5377 0.44,-0.3075 0.925,-0.5519 1.434,-0.8513 0.431,-0.9031 0.433,-1.9228 0.52,-2.9069 0.272,-3.078 0.173,-6.1514 -0.274,-9.2112 -0.17,-1.1644 -0.288,-1.3184 -1.507,-1.5105 -3.506,-0.5526 -7.041,-0.5794 -10.547,-0.1553 -5.582,0.6749 -10.823701,2.4055 -15.633801,5.3436 -7.0069,4.2804 -12.2027,10.0967 -15.5557,17.5417 -2.7359,6.0752 -3.6362,12.428 -3.1829,19.0097 0.0196,0.2832 0.2054,0.5544 0.3875,1.0179 0.5557,-0.5789 0.9768,-0.9936 1.3718,-1.4315 3.4624,-3.8431 7.4906,-6.9833 12.1338,-9.3089 8.7688,-4.3926 18.003301,-5.698 27.659301,-3.8025 9.226,1.8111 16.945,6.2591 23.197,13.1758 1.125,1.2454 2.142,2.5925 3.135,3.9459 1.059,1.4427 1.048,1.8156 0.061,3.2381 -2.077,2.9962 -4.468,5.7217 -7.302,8.0512 -0.574,0.4709 -1.139,0.9592 -1.757,1.3664 -0.754,0.4959 -1.013,1.036 -0.899,2.0009 0.249,2.0999 -0.948,3.8106 -2.912,4.5478 -2.383,0.8943 -5.074,-0.4845 -5.778,-2.96 -0.688,-2.4148 0.762,-4.8822 3.205,-5.4154 0.868,-0.1896 1.756,-0.2526 2.596,0.1279 0.561,0.2538 1.052,0.1778 1.519,-0.1791 3.34,-2.5527 6.372,-5.3979 8.679,-8.9286 0.035,-0.053 0.034,-0.129 0.07,-0.2731 -0.577,-1.0796 -1.428,-2.0294 -2.27,-2.9837 -8.526,-9.6758 -19.32,-14.2573 -32.259,-13.6074 -8.511801,0.4272 -16.090301,3.4639 -22.657901,8.8918 -2.8813,2.3818 -5.3639,5.1011 -7.469,8.1676 -2.3675,3.4496 -5.0396,6.6385 -8.2732,9.3422 -5.9847,5.0043 -12.8051,8.2599 -20.5864,9.392 -14.8382,2.1572 -27.4341,-2.2234 -37.7807796,-12.884 -1.44453,-1.4887 -2.58305,-3.265 -3.88845,-4.8877 -0.70231,-0.8733 -0.62522,-1.6865 -0.00893,-2.5641 1.54952,-2.2041 3.20068,-4.3288 5.17744,-6.1756 1.57288,-1.4694 3.2272196,-2.854 4.9271196,-4.3483 0,-0.4827 -0.0044,-1.0728 0.0013,-1.6621 0.019,-2.0158 1.6752,-3.8718 3.4503,-4.2017 1.8441,-0.3431 3.36,0.1634 4.5226,1.5892 1.1449,1.4044 1.2757,3.384 0.3324,4.8995 -0.9716,1.5617 -2.4161,2.3146 -4.2829,2.1312 -0.6638,-0.065 -1.3123,-0.28 -2.0602,-0.4478 -3.6223,2.6001 -6.7419396,5.7084 -9.3161696,9.3258 5.05867,8.3935 16.8123696,16.8039 31.7625696,17.0115 13.0176,0.1815 25.0508,-6.538 30.6714,-14.5691 -0.2851,-0.4522 -0.7163,-0.2446 -1.0918,-0.2147 -4.0084,0.3213 -7.9867,0.1828 -11.9428,-0.6048 -5.3122,-1.0578 -10.2455,-2.9956 -14.7871,-5.9288 -5.3088,-3.429 -9.6462,-7.7865 -12.9309,-13.1334 -4.6382,-7.5503 -6.6314,-15.7541 -5.9993,-24.5649 0.11,-1.5323 0.2997,-3.0604 0.5071,-4.584 0.2409,-1.7706 0.6316,-2.1604 2.4085,-2.4267 4.5143,-0.6755 9.0375,-0.9087 13.5739,-0.1908 0.1966,0.0311 0.4027,0.0043 0.6738,0.0043 0.3877,-0.424 0.7632,-0.8975 1.2018,-1.3034 1.3768,-1.2731 3.453,-1.5543 5.1079,-0.7254 1.7436,0.8731 2.6274,2.69 2.2974,4.7243 -0.2865,1.7694 -1.6298,3.1845 -3.4504,3.5039 -1.8125,0.3187 -3.3588,-0.1977 -4.484,-1.6908 -0.3212,-0.4266 -0.5569,-0.9162 -0.832,-1.3765 -2.8358,-0.9237 -8.0594,-0.9711 -13.2875,-0.1209 -0.5101,0.3517 -0.5076,0.9198 -0.5777,1.4375 -0.9129,6.76 -0.2915,13.3624 2.2612,19.7257 2.494,6.2156 6.3343,11.5031 11.5826,15.7498 5.7438,4.6477 12.2899,7.5003 19.6705,8.5089 2.9781,0.4073 5.9442,0.4246 8.9255,0.1877 0.3344,-0.0268 0.665,-0.1079 0.9938,-0.1778 0.0531,-0.0113 0.0898,-0.096 0.1391,-0.1527 0.232,-0.5134 -0.201,-0.6974 -0.4976,-0.9424 -3.2878,-2.7211 -6.2705,-5.7124 -8.6519,-9.2654 -4.0092,-5.9818 -6.3494,-12.5154 -6.9511,-19.6752 -0.4843,-5.7535 0.1712,-11.3635 2.0324,-16.8201 2.4793,-7.2671 6.6775,-13.4147003 12.6363,-18.3585703 1.1398,-0.94615 2.3794,-1.77254 3.5414,-2.69369 1.0146,-0.8032 2.0021,-0.72776 2.9686,0.01317 1.6038,1.23114 3.2753,2.39733 4.7458,3.77067 1.6695,1.55925 3.1526,3.31368 4.7089,4.9895203 0.3192,0.3429 0.6063,0.7159 0.9742,1.1532 z m 44.291201,72.3368 c 0.036,-0.8045 -0.631,-1.5336 -1.479,-1.6179 -0.764,-0.0754 -1.579,0.6574 -1.624,1.46 -0.044,0.7933 0.629,1.5293 1.482,1.6203 0.762,0.0811 1.584,-0.6604 1.621,-1.4624 z m -42.638701,-66.4687 c 0.866,-0.0437 1.5683,-0.7464 1.5354,-1.536 -0.0365,-0.8727 -0.9109,-1.6016 -1.7921,-1.4938 -0.7099,0.0874 -1.3143,0.8027 -1.2984,1.5387 0.017,0.8406 0.7389,1.5323 1.5551,1.4911 z m 34.991701,25.5422 c 0.792,-0.0555 1.47,-0.8569 1.385,-1.6384 -0.085,-0.7852 -0.877,-1.4295 -1.675,-1.3615 -0.842,0.0723 -1.459,0.8033 -1.37,1.6229 0.088,0.81 0.839,1.4338 1.66,1.377 z m -102.733401,15.6394 c 0.7916,-0.0018 1.5545,-0.7491 1.5563,-1.5225 0.0014,-0.8063 -0.7116,-1.4862 -1.5626,-1.4893 -0.813,-0.0024 -1.6013,0.7354 -1.5925,1.4899 0.0089,0.7223 0.8516,1.5244 1.5988,1.5219 z m 25.2835,-34.101 c 0.8086,0.0038 1.5596,-0.7047 1.5728,-1.4824 0.0127,-0.749 -0.7681,-1.5293 -1.5336,-1.5331 -0.8648,-0.0049 -1.5109,0.6324 -1.516,1.4957 -0.0056,0.89 0.6025,1.5161 1.4768,1.5198 z"
     fill="#ffffff"
     id="path2" />
  <path
     d="m 82.642739,11.999441 c 0.751,0 1.3567,-0.0075 1.9622,0.0012 2.1368,0.0325 3.9543,1.8836 4.1547,3.9797 0.1984,2.0743 -1.1443,3.9592 -3.2039,4.5772 -2.1215,0.6368 -4.3214,-0.3106 -5.2716,-2.3126 -0.5089,-1.0714 -0.5626,-2.206 -0.1733,-3.3242 0.2194,-0.6294 0.1771,-1.1551 -0.2396,-1.6858 -2.5886,-3.2962003 -5.4865,-6.2680303 -9.0431,-8.5300403 -8.9742,5.3474403 -17.0641,17.8808403 -17.1038,31.6229403 -0.0393,13.4466 7.8262,25.657 15.0492,30.2491 0.0709,-0.2745 0.1828,-0.5058 0.1815,-0.7366 -0.0108,-1.7394 -0.1074,-3.4807 -0.0581,-5.2184 0.2529,-8.8431 3.1683,-16.7682 8.5999,-23.7858 4.2368,-5.4727 9.535,-9.667 15.8965,-12.5147 7.950601,-3.5593 16.244601,-4.5405 24.840601,-3.084 2.152,0.3641 2.301,0.5225 2.678,2.6187 0.729,4.0514 0.709,8.124 0.334,12.2048 -0.048,0.5282 -0.113,1.0553 -0.175,1.6284 0.502,0.4715 1.027,0.8963 1.471,1.3915 1.848,2.0575 1.272,6.1669 -2.243,7.075 -2.059,0.5314 -4.227,-0.4354 -5.122,-2.2883 -0.962,-1.9883 -0.393,-4.2922 1.387,-5.5377 0.44,-0.3075 0.925,-0.5519 1.434,-0.8513 0.431,-0.9031 0.433,-1.9228 0.52,-2.9069 0.272,-3.078 0.173,-6.1514 -0.274,-9.2112 -0.17,-1.1644 -0.288,-1.3184 -1.507,-1.5105 -3.506,-0.5526 -7.041,-0.5794 -10.547,-0.1553 -5.582,0.6749 -10.823701,2.4055 -15.633801,5.3436 -7.0069,4.2804 -12.2027,10.0967 -15.5557,17.5417 -2.7359,6.0752 -3.6362,12.428 -3.1829,19.0097 0.0196,0.2832 0.2054,0.5544 0.3875,1.0179 0.5557,-0.5789 0.9768,-0.9936 1.3718,-1.4315 3.4624,-3.8431 7.4906,-6.9833 12.1338,-9.3089 8.7688,-4.3926 18.003301,-5.698 27.659301,-3.8025 9.226,1.8111 16.945,6.2591 23.197,13.1758 1.125,1.2454 2.142,2.5925 3.135,3.9459 1.059,1.4427 1.048,1.8156 0.061,3.2381 -2.077,2.9962 -4.468,5.7217 -7.302,8.0512 -0.574,0.4709 -1.139,0.9592 -1.757,1.3664 -0.754,0.4959 -1.013,1.036 -0.899,2.0009 0.249,2.0999 -0.948,3.8106 -2.912,4.5478 -2.383,0.8943 -5.074,-0.4845 -5.778,-2.96 -0.688,-2.4148 0.762,-4.8822 3.205,-5.4154 0.868,-0.1896 1.756,-0.2526 2.596,0.1279 0.561,0.2538 1.052,0.1778 1.519,-0.1791 3.34,-2.5527 6.372,-5.3979 8.679,-8.9286 0.035,-0.053 0.034,-0.129 0.07,-0.2731 -0.577,-1.0796 -1.428,-2.0294 -2.27,-2.9837 -8.526,-9.6758 -19.32,-14.2573 -32.259,-13.6074 -8.511801,0.4272 -16.090301,3.4639 -22.657901,8.8918 -2.8813,2.3818 -5.3639,5.1011 -7.469,8.1676 -2.3675,3.4496 -5.0396,6.6385 -8.2732,9.3422 -5.9847,5.0043 -12.8051,8.2599 -20.5864,9.392 -14.8382,2.1572 -27.4341,-2.2234 -37.7807796,-12.884 -1.44453,-1.4887 -2.58305,-3.265 -3.88845,-4.8877 -0.70231,-0.8733 -0.62522,-1.6865 -0.00893,-2.5641 1.54952,-2.2041 3.20068,-4.3288 5.17744,-6.1756 1.57288,-1.4694 3.2272196,-2.854 4.9271196,-4.3483 0,-0.4827 -0.0044,-1.0728 0.0013,-1.6621 0.019,-2.0158 1.6752,-3.8718 3.4503,-4.2017 1.8441,-0.3431 3.36,0.1634 4.5226,1.5892 1.1449,1.4044 1.2757,3.384 0.3324,4.8995 -0.9716,1.5617 -2.4161,2.3146 -4.2829,2.1312 -0.6638,-0.065 -1.3123,-0.28 -2.0602,-0.4478 -3.6223,2.6001 -6.7419396,5.7084 -9.3161696,9.3258 5.05867,8.3935 16.8123696,16.8039 31.7625696,17.0115 13.0176,0.1815 25.0508,-6.538 30.6714,-14.5691 -0.2851,-0.4522 -0.7163,-0.2446 -1.0918,-0.2147 -4.0084,0.3213 -7.9867,0.1828 -11.9428,-0.6048 -5.3122,-1.0578 -10.2455,-2.9956 -14.7871,-5.9288 -5.3088,-3.429 -9.6462,-7.7865 -12.9309,-13.1334 -4.6382,-7.5503 -6.6314,-15.7541 -5.9993,-24.5649 0.11,-1.5323 0.2997,-3.0604 0.5071,-4.584 0.2409,-1.7706 0.6316,-2.1604 2.4085,-2.4267 4.5143,-0.6755 9.0375,-0.9087 13.5739,-0.1908 0.1966,0.0311 0.4027,0.0043 0.6738,0.0043 0.3877,-0.424 0.7632,-0.8975 1.2018,-1.3034 1.3768,-1.2731 3.453,-1.5543 5.1079,-0.7254 1.7436,0.8731 2.6274,2.69 2.2974,4.7243 -0.2865,1.7694 -1.6298,3.1845 -3.4504,3.5039 -1.8125,0.3187 -3.3588,-0.1977 -4.484,-1.6908 -0.3212,-0.4266 -0.5569,-0.9162 -0.832,-1.3765 -2.8358,-0.9237 -8.0594,-0.9711 -13.2875,-0.1209 -0.5101,0.3517 -0.5076,0.9198 -0.5777,1.4375 -0.9129,6.76 -0.2915,13.3624 2.2612,19.7257 2.494,6.2156 6.3343,11.5031 11.5826,15.7498 5.7438,4.6477 12.2899,7.5003 19.6705,8.5089 2.9781,0.4073 5.9442,0.4246 8.9255,0.1877 0.3344,-0.0268 0.665,-0.1079 0.9938,-0.1778 0.0531,-0.0113 0.0898,-0.096 0.1391,-0.1527 0.232,-0.5134 -0.201,-0.6974 -0.4976,-0.9424 -3.2878,-2.7211 -6.2705,-5.7124 -8.6519,-9.2654 -4.0092,-5.9818 -6.3494,-12.5154 -6.9511,-19.6752 -0.4843,-5.7535 0.1712,-11.3635 2.0324,-16.8201 2.4793,-7.2671 6.6775,-13.4147003 12.6363,-18.3585703 1.1398,-0.94615 2.3794,-1.77254 3.5414,-2.69369 1.0146,-0.8032 2.0021,-0.72776 2.9686,0.01317 1.6038,1.23114 3.2753,2.39733 4.7458,3.77067 1.6695,1.55925 3.1526,3.31368 4.7089,4.9895203 0.3192,0.3429 0.6063,0.7159 0.9742,1.1532 z m 44.291201,72.3368 c 0.036,-0.8045 -0.631,-1.5336 -1.479,-1.6179 -0.764,-0.0754 -1.579,0.6574 -1.624,1.46 -0.044,0.7933 0.629,1.5293 1.482,1.6203 0.762,0.0811 1.584,-0.6604 1.621,-1.4624 z m -42.638701,-66.4687 c 0.866,-0.0437 1.5683,-0.7464 1.5354,-1.536 -0.0365,-0.8727 -0.9109,-1.6016 -1.7921,-1.4938 -0.7099,0.0874 -1.3143,0.8027 -1.2984,1.5387 0.017,0.8406 0.7389,1.5323 1.5551,1.4911 z m 34.991701,25.5422 c 0.792,-0.0555 1.47,-0.8569 1.385,-1.6384 -0.085,-0.7852 -0.877,-1.4295 -1.675,-1.3615 -0.842,0.0723 -1.459,0.8033 -1.37,1.6229 0.088,0.81 0.839,1.4338 1.66,1.377 z m -102.733401,15.6394 c 0.7916,-0.0018 1.5545,-0.7491 1.5563,-1.5225 0.0014,-0.8063 -0.7116,-1.4862 -1.5626,-1.4893 -0.813,-0.0024 -1.6013,0.7354 -1.5925,1.4899 0.0089,0.7223 0.8516,1.5244 1.5988,1.5219 z m 25.2835,-34.101 c 0.8086,0.0038 1.5596,-0.7047 1.5728,-1.4824 0.0127,-0.749 -0.7681,-1.5293 -1.5336,-1.5331 -0.8648,-0.0049 -1.5109,0.6324 -1.516,1.4957 -0.0056,0.89 0.6025,1.5161 1.4768,1.5198 z"
     stroke="#ffffff"
     stroke-width="3"
     stroke-miterlimit="10"
     id="path4" />
  <path
     d="m 82.642739,11.999441 c 0.751,0 1.3567,-0.0075 1.9622,0.0012 2.1368,0.0325 3.9543,1.8836 4.1547,3.9797 0.1984,2.0743 -1.1443,3.9592 -3.2039,4.5772 -2.1215,0.6368 -4.3214,-0.3106 -5.2716,-2.3126 -0.5089,-1.0714 -0.5626,-2.206 -0.1733,-3.3242 0.2194,-0.6294 0.1771,-1.1551 -0.2396,-1.6858 -2.5886,-3.2962003 -5.4865,-6.2680303 -9.0431,-8.5300403 -8.9742,5.3474403 -17.0641,17.8808403 -17.1038,31.6229403 -0.0393,13.4466 7.8262,25.657 15.0492,30.2491 0.0709,-0.2745 0.1828,-0.5058 0.1815,-0.7366 -0.0108,-1.7394 -0.1074,-3.4807 -0.0581,-5.2184 0.2529,-8.8431 3.1683,-16.7682 8.5999,-23.7858 4.2368,-5.4727 9.535,-9.667 15.8965,-12.5147 7.950601,-3.5593 16.244601,-4.5405 24.840601,-3.084 2.152,0.3641 2.301,0.5225 2.678,2.6187 0.729,4.0514 0.709,8.124 0.334,12.2048 -0.048,0.5282 -0.113,1.0553 -0.175,1.6284 0.502,0.4715 1.027,0.8963 1.471,1.3915 1.848,2.0575 1.272,6.1669 -2.243,7.075 -2.059,0.5314 -4.227,-0.4354 -5.122,-2.2883 -0.962,-1.9883 -0.393,-4.2922 1.387,-5.5377 0.44,-0.3075 0.925,-0.5519 1.434,-0.8513 0.431,-0.9031 0.433,-1.9228 0.52,-2.9069 0.272,-3.078 0.173,-6.1514 -0.274,-9.2112 -0.17,-1.1644 -0.288,-1.3184 -1.507,-1.5105 -3.506,-0.5526 -7.041,-0.5794 -10.547,-0.1553 -5.582,0.6749 -10.823701,2.4055 -15.633801,5.3436 -7.0069,4.2804 -12.2027,10.0967 -15.5557,17.5417 -2.7359,6.0752 -3.6362,12.428 -3.1829,19.0097 0.0196,0.2832 0.2054,0.5544 0.3875,1.0179 0.5557,-0.5789 0.9768,-0.9936 1.3718,-1.4315 3.4624,-3.8431 7.4906,-6.9833 12.1338,-9.3089 8.7688,-4.3926 18.003301,-5.698 27.659301,-3.8025 9.226,1.8111 16.945,6.2591 23.197,13.1758 1.125,1.2454 2.142,2.5925 3.135,3.9459 1.059,1.4427 1.048,1.8156 0.061,3.2381 -2.077,2.9962 -4.468,5.7217 -7.302,8.0512 -0.574,0.4709 -1.139,0.9592 -1.757,1.3664 -0.754,0.4959 -1.013,1.036 -0.899,2.0009 0.249,2.0999 -0.948,3.8106 -2.912,4.5478 -2.383,0.8943 -5.074,-0.4845 -5.778,-2.96 -0.688,-2.4148 0.762,-4.8822 3.205,-5.4154 0.868,-0.1896 1.756,-0.2526 2.596,0.1279 0.561,0.2538 1.052,0.1778 1.519,-0.1791 3.34,-2.5527 6.372,-5.3979 8.679,-8.9286 0.035,-0.053 0.034,-0.129 0.07,-0.2731 -0.577,-1.0796 -1.428,-2.0294 -2.27,-2.9837 -8.526,-9.6758 -19.32,-14.2573 -32.259,-13.6074 -8.511801,0.4272 -16.090301,3.4639 -22.657901,8.8918 -2.8813,2.3818 -5.3639,5.1011 -7.469,8.1676 -2.3675,3.4496 -5.0396,6.6385 -8.2732,9.3422 -5.9847,5.0043 -12.8051,8.2599 -20.5864,9.392 -14.8382,2.1572 -27.4341,-2.2234 -37.7807796,-12.884 -1.44453,-1.4887 -2.58305,-3.265 -3.88845,-4.8877 -0.70231,-0.8733 -0.62522,-1.6865 -0.00893,-2.5641 1.54952,-2.2041 3.20068,-4.3288 5.17744,-6.1756 1.57288,-1.4694 3.2272196,-2.854 4.9271196,-4.3483 0,-0.4827 -0.0044,-1.0728 0.0013,-1.6621 0.019,-2.0158 1.6752,-3.8718 3.4503,-4.2017 1.8441,-0.3431 3.36,0.1634 4.5226,1.5892 1.1449,1.4044 1.2757,3.384 0.3324,4.8995 -0.9716,1.5617 -2.4161,2.3146 -4.2829,2.1312 -0.6638,-0.065 -1.3123,-0.28 -2.0602,-0.4478 -3.6223,2.6001 -6.7419396,5.7084 -9.3161696,9.3258 5.05867,8.3935 16.8123696,16.8039 31.7625696,17.0115 13.0176,0.1815 25.0508,-6.538 30.6714,-14.5691 -0.2851,-0.4522 -0.7163,-0.2446 -1.0918,-0.2147 -4.0084,0.3213 -7.9867,0.1828 -11.9428,-0.6048 -5.3122,-1.0578 -10.2455,-2.9956 -14.7871,-5.9288 -5.3088,-3.429 -9.6462,-7.7865 -12.9309,-13.1334 -4.6382,-7.5503 -6.6314,-15.7541 -5.9993,-24.5649 0.11,-1.5323 0.2997,-3.0604 0.5071,-4.584 0.2409,-1.7706 0.6316,-2.1604 2.4085,-2.4267 4.5143,-0.6755 9.0375,-0.9087 13.5739,-0.1908 0.1966,0.0311 0.4027,0.0043 0.6738,0.0043 0.3877,-0.424 0.7632,-0.8975 1.2018,-1.3034 1.3768,-1.2731 3.453,-1.5543 5.1079,-0.7254 1.7436,0.8731 2.6274,2.69 2.2974,4.7243 -0.2865,1.7694 -1.6298,3.1845 -3.4504,3.5039 -1.8125,0.3187 -3.3588,-0.1977 -4.484,-1.6908 -0.3212,-0.4266 -0.5569,-0.9162 -0.832,-1.3765 -2.8358,-0.9237 -8.0594,-0.9711 -13.2875,-0.1209 -0.5101,0.3517 -0.5076,0.9198 -0.5777,1.4375 -0.9129,6.76 -0.2915,13.3624 2.2612,19.7257 2.494,6.2156 6.3343,11.5031 11.5826,15.7498 5.7438,4.6477 12.2899,7.5003 19.6705,8.5089 2.9781,0.4073 5.9442,0.4246 8.9255,0.1877 0.3344,-0.0268 0.665,-0.1079 0.9938,-0.1778 0.0531,-0.0113 0.0898,-0.096 0.1391,-0.1527 0.232,-0.5134 -0.201,-0.6974 -0.4976,-0.9424 -3.2878,-2.7211 -6.2705,-5.7124 -8.6519,-9.2654 -4.0092,-5.9818 -6.3494,-12.5154 -6.9511,-19.6752 -0.4843,-5.7535 0.1712,-11.3635 2.0324,-16.8201 2.4793,-7.2671 6.6775,-13.4147003 12.6363,-18.3585703 1.1398,-0.94615 2.3794,-1.77254 3.5414,-2.69369 1.0146,-0.8032 2.0021,-0.72776 2.9686,0.01317 1.6038,1.23114 3.2753,2.39733 4.7458,3.77067 1.6695,1.55925 3.1526,3.31368 4.7089,4.9895203 0.3192,0.3429 0.6063,0.7159 0.9742,1.1532 z m 44.291201,72.3368 c 0.036,-0.8045 -0.631,-1.5336 -1.479,-1.6179 -0.764,-0.0754 -1.579,0.6574 -1.624,1.46 -0.044,0.7933 0.629,1.5293 1.482,1.6203 0.762,0.0811 1.584,-0.6604 1.621,-1.4624 z m -42.638701,-66.4687 c 0.866,-0.0437 1.5683,-0.7464 1.5354,-1.536 -0.0365,-0.8727 -0.9109,-1.6016 -1.7921,-1.4938 -0.7099,0.0874 -1.3143,0.8027 -1.2984,1.5387 0.017,0.8406 0.7389,1.5323 1.5551,1.4911 z m 34.991701,25.5422 c 0.792,-0.0555 1.47,-0.8569 1.385,-1.6384 -0.085,-0.7852 -0.877,-1.4295 -1.675,-1.3615 -0.842,0.0723 -1.459,0.8033 -1.37,1.6229 0.088,0.81 0.839,1.4338 1.66,1.377 z m -102.733401,15.6394 c 0.7916,-0.0018 1.5545,-0.7491 1.5563,-1.5225 0.0014,-0.8063 -0.7116,-1.4862 -1.5626,-1.4893 -0.813,-0.0024 -1.6013,0.7354 -1.5925,1.4899 0.0089,0.7223 0.8516,1.5244 1.5988,1.5219 z m 25.2835,-34.101 c 0.8086,0.0038 1.5596,-0.7047 1.5728,-1.4824 0.0127,-0.749 -0.7681,-1.5293 -1.5336,-1.5331 -0.8648,-0.0049 -1.5109,0.6324 -1.516,1.4957 -0.0056,0.89 0.6025,1.5161 1.4768,1.5198 z"
     stroke="#afafa5"
     stroke-width="3"
     stroke-miterlimit="10"
     id="path6" />
</svg>
