<?xml version="1.0" encoding="UTF-8" standalone="no"?><!DOCTYPE svg PUBLIC "-//W3C//DTD SVG 1.1//EN" "http://www.w3.org/Graphics/SVG/1.1/DTD/svg11.dtd"><svg width="100%" height="100%" viewBox="0 0 8001 4500" version="1.1" xmlns="http://www.w3.org/2000/svg" xmlns:xlink="http://www.w3.org/1999/xlink" xml:space="preserve" xmlns:serif="http://www.serif.com/" style="fill-rule:evenodd;clip-rule:evenodd;stroke-miterlimit:10;"><rect id="Página-11" serif:id="Página 11" x="0" y="0" width="8000.08" height="4500" style="fill:none;"/><g><text x="3888.39px" y="1876.23px" style="font-family:'ArialMT', 'Arial', sans-serif;font-size:598.528px;fill:#afafa5;">l<tspan x="4023.26px 4358.03px 4526.22px 4861px " y="1876.23px 1876.23px 1876.23px 1876.23px ">otus</tspan></text><path d="M3412.96,1452c-2.425,-2.921 -4.317,-5.413 -6.421,-7.704c-10.258,-11.196 -20.033,-22.917 -31.037,-33.334c-9.692,-9.175 -20.709,-16.966 -31.28,-25.191c-6.37,-4.95 -12.879,-5.454 -19.566,-0.088c-7.659,6.154 -15.829,11.675 -23.342,17.996c-39.275,33.029 -66.946,74.1 -83.287,122.65c-12.267,36.454 -16.588,73.933 -13.396,112.371c3.966,47.833 19.391,91.483 45.816,131.446c15.696,23.737 35.355,43.721 57.025,61.9c1.955,1.637 4.809,2.866 3.28,6.296c-0.325,0.379 -0.567,0.945 -0.917,1.02c-2.167,0.467 -4.346,1.009 -6.55,1.188c-19.65,1.583 -39.2,1.467 -58.829,-1.254c-48.646,-6.738 -91.792,-25.796 -129.65,-56.846c-34.592,-28.371 -59.904,-63.696 -76.342,-105.221c-16.825,-42.512 -20.921,-86.621 -14.904,-131.783c0.462,-3.459 0.446,-7.254 3.808,-9.604c34.459,-5.68 68.888,-5.363 87.579,0.808c1.813,3.075 3.367,6.346 5.484,9.196c7.416,9.975 17.608,13.425 29.554,11.296c12,-2.134 20.854,-11.588 22.742,-23.409c2.175,-13.591 -3.65,-25.729 -15.142,-31.562c-10.908,-5.538 -24.592,-3.659 -33.667,4.846c-2.891,2.712 -5.366,5.875 -7.921,8.708c-1.787,-0 -3.145,0.179 -4.441,-0.029c-29.9,-4.796 -59.713,-3.238 -89.467,1.275c-11.712,1.779 -14.287,4.383 -15.875,16.212c-1.367,10.179 -2.617,20.388 -3.342,30.625c-4.166,58.863 8.971,113.671 39.542,164.113c21.65,35.721 50.238,64.833 85.229,87.741c29.934,19.596 62.45,32.542 97.463,39.609c26.075,5.262 52.296,6.187 78.716,4.041c2.475,-0.2 5.317,-1.587 7.196,1.434c-37.046,53.654 -116.358,98.546 -202.158,97.333c-98.538,-1.387 -176.008,-57.575 -209.35,-113.65c16.967,-24.167 37.529,-44.933 61.404,-62.304c4.929,1.121 9.204,2.558 13.579,2.992c12.304,1.225 21.825,-3.805 28.229,-14.238c6.217,-10.125 5.355,-23.35 -2.191,-32.733c-7.663,-9.525 -17.654,-12.909 -29.809,-10.617c-11.7,2.204 -22.616,14.604 -22.741,28.071c-0.038,3.937 -0.009,7.879 -0.009,11.104c-11.204,9.983 -22.108,19.233 -32.475,29.05c-13.029,12.338 -23.912,26.533 -34.125,41.258c-4.062,5.863 -4.57,11.296 0.059,17.13c8.604,10.841 16.108,22.708 25.629,32.654c68.196,71.221 151.217,100.487 249.017,86.075c51.287,-7.563 96.241,-29.313 135.687,-62.746c21.313,-18.063 38.925,-39.367 54.529,-62.413c13.875,-20.487 30.238,-38.654 49.229,-54.566c43.288,-36.263 93.238,-56.55 149.338,-59.404c85.287,-4.342 156.429,26.266 212.625,90.908c5.546,6.375 11.158,12.721 14.958,19.933c-0.233,0.963 -0.229,1.471 -0.458,1.825c-15.204,23.588 -35.192,42.596 -57.204,59.65c-3.079,2.384 -6.317,2.892 -10.013,1.196c-5.537,-2.542 -11.387,-2.121 -17.112,-0.854c-16.1,3.562 -25.654,20.046 -21.125,36.179c4.646,16.538 22.383,25.75 38.087,19.775c12.946,-4.925 20.834,-16.354 19.192,-30.383c-0.754,-6.446 0.958,-10.054 5.925,-13.367c4.075,-2.721 7.8,-5.983 11.579,-9.129c18.679,-15.563 34.438,-33.771 48.133,-53.788c6.505,-9.504 6.575,-11.995 -0.404,-21.633c-6.546,-9.042 -13.25,-18.042 -20.666,-26.362c-41.205,-46.209 -92.08,-75.925 -152.888,-88.025c-63.646,-12.663 -124.512,-3.942 -182.308,25.404c-30.604,15.537 -57.154,36.516 -79.975,62.191c-2.604,2.925 -5.379,5.696 -9.042,9.563c-1.2,-3.096 -2.425,-4.908 -2.554,-6.8c-2.988,-43.971 2.946,-86.413 20.979,-127c22.1,-49.738 56.346,-88.596 102.529,-117.192c31.704,-19.629 66.25,-31.191 103.042,-35.7c23.108,-2.833 46.408,-2.654 69.517,1.038c8.033,1.283 8.816,2.312 9.933,10.091c2.946,20.442 3.6,40.975 1.808,61.538c-0.575,6.575 -0.591,13.387 -3.429,19.421c-3.354,2 -6.55,3.633 -9.45,5.687c-11.733,8.321 -15.483,23.713 -9.146,36.996c5.904,12.379 20.192,18.838 33.763,15.288c23.166,-6.067 26.966,-33.521 14.783,-47.267c-2.929,-3.308 -6.383,-6.146 -9.696,-9.296c0.409,-3.829 0.838,-7.35 1.154,-10.879c2.475,-27.263 2.605,-54.471 -2.2,-81.538c-2.483,-14.004 -3.47,-15.062 -17.654,-17.495c-56.654,-9.73 -111.321,-3.175 -163.725,20.604c-41.929,19.025 -76.85,47.046 -104.775,83.608c-35.8,46.883 -55.016,99.829 -56.683,158.908c-0.325,11.609 0.312,23.242 0.383,34.863c0.009,1.542 -0.729,3.087 -1.196,4.921c-47.608,-30.679 -99.45,-112.254 -99.191,-202.088c0.262,-91.808 53.583,-175.541 112.733,-211.266c23.442,15.112 42.542,34.966 59.604,56.987c2.746,3.546 3.025,7.058 1.579,11.263c-2.566,7.47 -2.212,15.05 1.142,22.208c6.263,13.375 20.763,19.704 34.746,15.45c13.575,-4.129 22.425,-16.721 21.117,-30.579c-1.321,-14.004 -13.3,-26.371 -27.384,-26.588c-3.991,-0.058 -7.983,-0.008 -12.933,-0.008Z" style="fill:#fff;fill-rule:nonzero;stroke:#b1b0a4;stroke-width:8.33px;"/><path d="M3412.96,1452c4.95,-0 8.942,-0.05 12.933,0.008c14.084,0.217 26.063,12.584 27.384,26.588c1.308,13.858 -7.542,26.45 -21.117,30.579c-13.983,4.254 -28.483,-2.075 -34.746,-15.45c-3.354,-7.158 -3.708,-14.738 -1.142,-22.208c1.446,-4.205 1.167,-7.717 -1.579,-11.263c-17.062,-22.021 -36.162,-41.875 -59.604,-56.987c-59.15,35.725 -112.471,119.458 -112.733,211.266c-0.259,89.834 51.583,171.409 99.191,202.088c0.467,-1.834 1.205,-3.379 1.196,-4.921c-0.071,-11.621 -0.708,-23.254 -0.383,-34.863c1.667,-59.079 20.883,-112.025 56.683,-158.908c27.925,-36.562 62.846,-64.583 104.775,-83.608c52.404,-23.779 107.071,-30.334 163.725,-20.604c14.184,2.433 15.171,3.491 17.654,17.495c4.805,27.067 4.675,54.275 2.2,81.538c-0.316,3.529 -0.745,7.05 -1.154,10.879c3.313,3.15 6.767,5.988 9.696,9.296c12.183,13.746 8.383,41.2 -14.783,47.267c-13.571,3.55 -27.859,-2.909 -33.763,-15.288c-6.337,-13.283 -2.587,-28.675 9.146,-36.996c2.9,-2.054 6.096,-3.687 9.45,-5.687c2.838,-6.034 2.854,-12.846 3.429,-19.421c1.792,-20.563 1.138,-41.096 -1.808,-61.538c-1.117,-7.779 -1.9,-8.808 -9.933,-10.091c-23.109,-3.692 -46.409,-3.871 -69.517,-1.038c-36.792,4.509 -71.338,16.071 -103.042,35.7c-46.183,28.596 -80.429,67.454 -102.529,117.192c-18.033,40.587 -23.967,83.029 -20.979,127c0.129,1.892 1.354,3.704 2.554,6.8c3.663,-3.867 6.438,-6.638 9.042,-9.563c22.821,-25.675 49.371,-46.654 79.975,-62.191c57.796,-29.346 118.662,-38.067 182.308,-25.404c60.808,12.1 111.683,41.816 152.888,88.025c7.416,8.32 14.12,17.32 20.666,26.362c6.979,9.638 6.909,12.129 0.404,21.633c-13.695,20.017 -29.454,38.225 -48.133,53.788c-3.779,3.146 -7.504,6.408 -11.579,9.129c-4.967,3.313 -6.679,6.921 -5.925,13.367c1.642,14.029 -6.246,25.458 -19.192,30.383c-15.704,5.975 -33.441,-3.237 -38.087,-19.775c-4.529,-16.133 5.025,-32.617 21.125,-36.179c5.725,-1.267 11.575,-1.688 17.112,0.854c3.696,1.696 6.934,1.188 10.013,-1.196c22.012,-17.054 42,-36.062 57.204,-59.65c0.229,-0.354 0.225,-0.862 0.458,-1.825c-3.8,-7.212 -9.412,-13.558 -14.958,-19.933c-56.196,-64.642 -127.338,-95.25 -212.625,-90.908c-56.1,2.854 -106.05,23.141 -149.338,59.404c-18.991,15.912 -35.354,34.079 -49.229,54.566c-15.604,23.046 -33.216,44.35 -54.529,62.413c-39.446,33.433 -84.4,55.183 -135.687,62.746c-97.8,14.412 -180.821,-14.854 -249.017,-86.075c-9.521,-9.946 -17.025,-21.813 -25.629,-32.654c-4.629,-5.834 -4.121,-11.267 -0.059,-17.13c10.213,-14.725 21.096,-28.92 34.125,-41.258c10.367,-9.817 21.271,-19.067 32.475,-29.05c0,-3.225 -0.029,-7.167 0.009,-11.104c0.125,-13.467 11.041,-25.867 22.741,-28.071c12.155,-2.292 22.146,1.092 29.809,10.617c7.546,9.383 8.408,22.608 2.191,32.733c-6.404,10.433 -15.925,15.463 -28.229,14.238c-4.375,-0.434 -8.65,-1.871 -13.579,-2.992c-23.875,17.371 -44.437,38.137 -61.404,62.304c33.342,56.075 110.812,112.263 209.35,113.65c85.8,1.213 165.112,-43.679 202.158,-97.333c-1.879,-3.021 -4.721,-1.634 -7.196,-1.434c-26.42,2.146 -52.641,1.221 -78.716,-4.041c-35.013,-7.067 -67.529,-20.013 -97.463,-39.609c-34.991,-22.908 -63.579,-52.02 -85.229,-87.741c-30.571,-50.442 -43.708,-105.25 -39.542,-164.113c0.725,-10.237 1.975,-20.446 3.342,-30.625c1.588,-11.829 4.163,-14.433 15.875,-16.212c29.754,-4.513 59.567,-6.071 89.467,-1.275c1.296,0.208 2.654,0.029 4.441,0.029c2.555,-2.833 5.03,-5.996 7.921,-8.708c9.075,-8.505 22.759,-10.384 33.667,-4.846c11.492,5.833 17.317,17.971 15.142,31.562c-1.888,11.821 -10.742,21.275 -22.742,23.409c-11.946,2.129 -22.138,-1.321 -29.554,-11.296c-2.117,-2.85 -3.671,-6.121 -5.484,-9.196c-18.691,-6.171 -53.12,-6.488 -87.579,-0.808c-3.362,2.35 -3.346,6.145 -3.808,9.604c-6.017,45.162 -1.921,89.271 14.904,131.783c16.438,41.525 41.75,76.85 76.342,105.221c37.858,31.05 81.004,50.108 129.65,56.846c19.629,2.721 39.179,2.837 58.829,1.254c2.204,-0.179 4.383,-0.721 6.55,-1.188c0.35,-0.075 0.592,-0.641 0.917,-1.02c1.529,-3.43 -1.325,-4.659 -3.28,-6.296c-21.67,-18.179 -41.329,-38.163 -57.025,-61.9c-26.425,-39.963 -41.85,-83.613 -45.816,-131.446c-3.192,-38.438 1.129,-75.917 13.396,-112.371c16.341,-48.55 44.012,-89.621 83.287,-122.65c7.513,-6.321 15.683,-11.842 23.342,-17.996c6.687,-5.366 13.196,-4.862 19.566,0.088c10.571,8.225 21.588,16.016 31.28,25.191c11.004,10.417 20.779,22.138 31.037,33.334c2.104,2.291 3.996,4.783 6.421,7.704m291.925,483.267c0.242,-5.375 -4.154,-10.246 -9.746,-10.809c-5.033,-0.504 -10.404,4.392 -10.704,9.754c-0.292,5.3 4.146,10.217 9.767,10.825c5.025,0.542 10.441,-4.412 10.683,-9.77m-281.033,-444.063c5.708,-0.292 10.337,-4.987 10.12,-10.262c-0.241,-5.83 -6.004,-10.7 -11.812,-9.98c-4.679,0.584 -8.663,5.363 -8.558,10.28c0.112,5.616 4.87,10.237 10.25,9.962m230.633,170.642c5.221,-0.371 9.687,-5.725 9.129,-10.946c-0.562,-5.246 -5.783,-9.55 -11.037,-9.096c-5.55,0.483 -9.621,5.367 -9.034,10.842c0.579,5.412 5.534,9.579 10.942,9.2m-677.125,104.483c5.217,-0.012 10.246,-5.004 10.258,-10.171c0.009,-5.387 -4.691,-9.929 -10.3,-9.95c-5.358,-0.016 -10.554,4.913 -10.496,9.954c0.059,4.825 5.613,10.184 10.538,10.167m166.646,-227.821c5.329,0.025 10.279,-4.708 10.366,-9.904c0.084,-5.004 -5.062,-10.217 -10.108,-10.242c-5.7,-0.033 -9.958,4.225 -9.992,9.992c-0.037,5.946 3.971,10.129 9.734,10.154" style="fill:#afafa5;fill-rule:nonzero;"/><path d="M3412.96,1452c4.95,-0 8.942,-0.05 12.933,0.008c14.084,0.217 26.063,12.584 27.384,26.588c1.308,13.858 -7.542,26.45 -21.117,30.579c-13.983,4.254 -28.483,-2.075 -34.746,-15.45c-3.354,-7.158 -3.708,-14.738 -1.142,-22.208c1.446,-4.205 1.167,-7.717 -1.579,-11.263c-17.062,-22.021 -36.162,-41.875 -59.604,-56.987c-59.15,35.725 -112.471,119.458 -112.733,211.266c-0.259,89.834 51.583,171.409 99.191,202.088c0.467,-1.834 1.205,-3.379 1.196,-4.921c-0.071,-11.621 -0.708,-23.254 -0.383,-34.863c1.667,-59.079 20.883,-112.025 56.683,-158.908c27.925,-36.562 62.846,-64.583 104.775,-83.608c52.404,-23.779 107.071,-30.334 163.725,-20.604c14.184,2.433 15.171,3.491 17.654,17.495c4.805,27.067 4.675,54.275 2.2,81.538c-0.316,3.529 -0.745,7.05 -1.154,10.879c3.313,3.15 6.767,5.988 9.696,9.296c12.183,13.746 8.383,41.2 -14.783,47.267c-13.571,3.55 -27.859,-2.909 -33.763,-15.288c-6.337,-13.283 -2.587,-28.675 9.146,-36.996c2.9,-2.054 6.096,-3.687 9.45,-5.687c2.838,-6.034 2.854,-12.846 3.429,-19.421c1.792,-20.563 1.138,-41.096 -1.808,-61.538c-1.117,-7.779 -1.9,-8.808 -9.933,-10.091c-23.109,-3.692 -46.409,-3.871 -69.517,-1.038c-36.792,4.509 -71.338,16.071 -103.042,35.7c-46.183,28.596 -80.429,67.454 -102.529,117.192c-18.033,40.587 -23.967,83.029 -20.979,127c0.129,1.892 1.354,3.704 2.554,6.8c3.663,-3.867 6.438,-6.638 9.042,-9.563c22.821,-25.675 49.371,-46.654 79.975,-62.191c57.796,-29.346 118.662,-38.067 182.308,-25.404c60.808,12.1 111.683,41.816 152.888,88.025c7.416,8.32 14.12,17.32 20.666,26.362c6.979,9.638 6.909,12.129 0.404,21.633c-13.695,20.017 -29.454,38.225 -48.133,53.788c-3.779,3.146 -7.504,6.408 -11.579,9.129c-4.967,3.313 -6.679,6.921 -5.925,13.367c1.642,14.029 -6.246,25.458 -19.192,30.383c-15.704,5.975 -33.441,-3.237 -38.087,-19.775c-4.529,-16.133 5.025,-32.617 21.125,-36.179c5.725,-1.267 11.575,-1.688 17.112,0.854c3.696,1.696 6.934,1.188 10.013,-1.196c22.012,-17.054 42,-36.062 57.204,-59.65c0.229,-0.354 0.225,-0.862 0.458,-1.825c-3.8,-7.212 -9.412,-13.558 -14.958,-19.933c-56.196,-64.642 -127.338,-95.25 -212.625,-90.908c-56.1,2.854 -106.05,23.141 -149.338,59.404c-18.991,15.912 -35.354,34.079 -49.229,54.566c-15.604,23.046 -33.216,44.35 -54.529,62.413c-39.446,33.433 -84.4,55.183 -135.687,62.746c-97.8,14.412 -180.821,-14.854 -249.017,-86.075c-9.521,-9.946 -17.025,-21.813 -25.629,-32.654c-4.629,-5.834 -4.121,-11.267 -0.059,-17.13c10.213,-14.725 21.096,-28.92 34.125,-41.258c10.367,-9.817 21.271,-19.067 32.475,-29.05c0,-3.225 -0.029,-7.167 0.009,-11.104c0.125,-13.467 11.041,-25.867 22.741,-28.071c12.155,-2.292 22.146,1.092 29.809,10.617c7.546,9.383 8.408,22.608 2.191,32.733c-6.404,10.433 -15.925,15.463 -28.229,14.238c-4.375,-0.434 -8.65,-1.871 -13.579,-2.992c-23.875,17.371 -44.437,38.137 -61.404,62.304c33.342,56.075 110.812,112.263 209.35,113.65c85.8,1.213 165.112,-43.679 202.158,-97.333c-1.879,-3.021 -4.721,-1.634 -7.196,-1.434c-26.42,2.146 -52.641,1.221 -78.716,-4.041c-35.013,-7.067 -67.529,-20.013 -97.463,-39.609c-34.991,-22.908 -63.579,-52.02 -85.229,-87.741c-30.571,-50.442 -43.708,-105.25 -39.542,-164.113c0.725,-10.237 1.975,-20.446 3.342,-30.625c1.588,-11.829 4.163,-14.433 15.875,-16.212c29.754,-4.513 59.567,-6.071 89.467,-1.275c1.296,0.208 2.654,0.029 4.441,0.029c2.555,-2.833 5.03,-5.996 7.921,-8.708c9.075,-8.505 22.759,-10.384 33.667,-4.846c11.492,5.833 17.317,17.971 15.142,31.562c-1.888,11.821 -10.742,21.275 -22.742,23.409c-11.946,2.129 -22.138,-1.321 -29.554,-11.296c-2.117,-2.85 -3.671,-6.121 -5.484,-9.196c-18.691,-6.171 -53.12,-6.488 -87.579,-0.808c-3.362,2.35 -3.346,6.145 -3.808,9.604c-6.017,45.162 -1.921,89.271 14.904,131.783c16.438,41.525 41.75,76.85 76.342,105.221c37.858,31.05 81.004,50.108 129.65,56.846c19.629,2.721 39.179,2.837 58.829,1.254c2.204,-0.179 4.383,-0.721 6.55,-1.188c0.35,-0.075 0.592,-0.641 0.917,-1.02c1.529,-3.43 -1.325,-4.659 -3.28,-6.296c-21.67,-18.179 -41.329,-38.163 -57.025,-61.9c-26.425,-39.963 -41.85,-83.613 -45.816,-131.446c-3.192,-38.438 1.129,-75.917 13.396,-112.371c16.341,-48.55 44.012,-89.621 83.287,-122.65c7.513,-6.321 15.683,-11.842 23.342,-17.996c6.687,-5.366 13.196,-4.862 19.566,0.088c10.571,8.225 21.588,16.016 31.28,25.191c11.004,10.417 20.779,22.138 31.037,33.334c2.104,2.291 3.996,4.783 6.421,7.704Zm291.925,483.267c0.242,-5.375 -4.154,-10.246 -9.746,-10.809c-5.033,-0.504 -10.404,4.392 -10.704,9.754c-0.292,5.3 4.146,10.217 9.767,10.825c5.025,0.542 10.441,-4.412 10.683,-9.77Zm-281.033,-444.063c5.708,-0.292 10.337,-4.987 10.12,-10.262c-0.241,-5.83 -6.004,-10.7 -11.812,-9.98c-4.679,0.584 -8.663,5.363 -8.558,10.28c0.112,5.616 4.87,10.237 10.25,9.962Zm230.633,170.642c5.221,-0.371 9.687,-5.725 9.129,-10.946c-0.562,-5.246 -5.783,-9.55 -11.037,-9.096c-5.55,0.483 -9.621,5.367 -9.034,10.842c0.579,5.412 5.534,9.579 10.942,9.2Zm-677.125,104.483c5.217,-0.012 10.246,-5.004 10.258,-10.171c0.009,-5.387 -4.691,-9.929 -10.3,-9.95c-5.358,-0.016 -10.554,4.913 -10.496,9.954c0.059,4.825 5.613,10.184 10.538,10.167Zm166.646,-227.821c5.329,0.025 10.279,-4.708 10.366,-9.904c0.084,-5.004 -5.062,-10.217 -10.108,-10.242c-5.7,-0.033 -9.958,4.225 -9.992,9.992c-0.037,5.946 3.971,10.129 9.734,10.154Z" style="fill:none;fill-rule:nonzero;stroke:#b1b0a4;stroke-width:8.33px;"/></g><rect x="3690.25" y="2412.68" width="41.479" height="362.929" style="fill:#afafa5;"/><path d="M3775.79,2640.81c-0,-95.916 62.733,-139.983 129.616,-139.983c66.884,-0 129.617,44.067 129.617,139.983c-0,95.917 -62.733,139.988 -129.617,139.988c-66.883,-0 -129.616,-44.071 -129.616,-139.988m129.616,104.729c46.663,0 89.696,-32.141 89.696,-104.729c0,-72.583 -43.033,-105.25 -89.696,-105.25c-47.179,0 -90.212,32.667 -90.212,105.25c-0,72.588 43.033,104.729 90.212,104.729" style="fill:#afafa5;fill-rule:nonzero;"/><path d="M4097.76,2712.36l-0,-172.651l-43.55,0l-0,-33.7l43.55,0l-0,-67.4l41.479,0l0,67.4l53.4,0l0,33.7l-53.4,0l0,164.875c0,29.034 9.85,40.438 38.883,40.438c6.742,-0 11.404,-0 18.667,-1.033l-0,32.141c-9.333,2.075 -19.183,3.113 -30.071,3.113c-40.442,-0 -68.958,-17.109 -68.958,-66.884" style="fill:#afafa5;fill-rule:nonzero;"/><path d="M4348.7,2745.54c45.104,0 76.212,-26.958 79.325,-73.621l0.521,-165.912l41.475,-0l-0.517,269.604l-41.479,-0l-0,-52.883l-1.038,-0c-4.666,18.145 -30.587,58.07 -92.804,58.07c-53.404,0 -96.433,-29.037 -96.433,-108.362l0.517,-166.429l41.475,-0l-0.517,158.133c-0,51.329 21.775,81.4 69.475,81.4" style="fill:#afafa5;fill-rule:nonzero;"/><path d="M4512.01,2698.88l37.329,0c5.187,36.813 38.887,49.254 74.141,49.254c36.813,0 66.363,-13.479 66.363,-47.179c-0,-26.442 -18.146,-35.258 -47.179,-41.996l-50.809,-11.925c-47.7,-11.408 -71.55,-35.775 -71.55,-72.587c0.001,-47.696 40.442,-73.621 101.621,-73.621c60.659,-0 100.579,25.925 103.692,79.846l-35.254,-0c-5.704,-35.259 -31.109,-47.184 -68.438,-47.184c-39.404,0 -61.179,12.963 -61.179,40.959c0,20.741 12.442,33.7 45.104,40.962l50.292,11.921c44.587,10.371 76.217,27.479 76.217,73.108c-0,59.105 -53.921,80.363 -109.4,80.363c-61.696,-0 -108.359,-25.408 -110.95,-81.921" style="fill:#afafa5;fill-rule:nonzero;"/><path d="M3131.69,2506.5c5.734,0 10.359,-0.062 14.98,0.013c16.304,0.25 30.179,14.566 31.704,30.783c1.516,16.05 -8.729,30.625 -24.45,35.408c-16.192,4.93 -32.984,-2.404 -40.234,-17.887c-3.883,-8.292 -4.291,-17.067 -1.32,-25.717c1.67,-4.87 1.35,-8.933 -1.834,-13.041c-19.758,-25.5 -41.871,-48.492 -69.012,-65.992c-68.492,41.367 -130.234,138.329 -130.538,244.638c-0.3,104.02 59.729,198.483 114.854,234.004c0.538,-2.125 1.392,-3.913 1.384,-5.7c-0.079,-13.454 -0.821,-26.925 -0.442,-40.363c1.933,-68.412 24.183,-129.721 65.638,-184.008c32.329,-42.342 72.77,-74.788 121.32,-96.817c60.68,-27.533 123.984,-35.121 189.584,-23.858c16.425,2.821 17.566,4.046 20.446,20.262c5.558,31.338 5.412,62.846 2.545,94.417c-0.37,4.088 -0.862,8.163 -1.337,12.596c3.837,3.65 7.837,6.933 11.225,10.762c14.108,15.917 9.712,47.709 -17.117,54.734c-15.712,4.112 -32.258,-3.367 -39.096,-17.704c-7.333,-15.38 -2.995,-33.205 10.592,-42.838c3.358,-2.379 7.058,-4.271 10.942,-6.587c3.283,-6.988 3.308,-14.875 3.971,-22.488c2.079,-23.808 1.316,-47.587 -2.092,-71.258c-1.296,-9.005 -2.2,-10.2 -11.504,-11.688c-26.759,-4.275 -53.738,-4.475 -80.496,-1.196c-42.604,5.221 -82.604,18.604 -119.317,41.338c-53.475,33.108 -93.129,78.104 -118.721,135.7c-20.883,47 -27.754,96.142 -24.291,147.062c0.15,2.188 1.566,4.288 2.954,7.871c4.242,-4.475 7.458,-7.687 10.471,-11.075c26.425,-29.725 57.166,-54.021 92.604,-72.012c66.925,-33.984 137.408,-44.079 211.104,-29.417c70.413,14.012 129.325,48.421 177.033,101.925c8.592,9.637 16.35,20.062 23.934,30.529c8.079,11.158 8,14.046 0.471,25.05c-15.863,23.179 -34.109,44.263 -55.742,62.283c-4.371,3.642 -8.683,7.421 -13.404,10.571c-5.75,3.838 -7.738,8.013 -6.863,15.479c1.904,16.242 -7.233,29.48 -22.221,35.184c-18.187,6.912 -38.725,-3.75 -44.104,-22.904c-5.246,-18.675 5.817,-37.767 24.459,-41.892c6.629,-1.467 13.408,-1.95 19.816,0.987c4.284,1.967 8.034,1.38 11.592,-1.379c25.492,-19.75 48.637,-41.758 66.242,-69.075c0.266,-0.408 0.262,-0.996 0.533,-2.108c-4.404,-8.354 -10.9,-15.704 -17.321,-23.088c-65.071,-74.85 -147.45,-110.291 -246.208,-105.266c-64.963,3.308 -122.804,26.8 -172.921,68.791c-21.996,18.425 -40.942,39.463 -57.008,63.184c-18.071,26.683 -38.463,51.35 -63.142,72.271c-45.675,38.712 -97.729,63.9 -157.117,72.65c-113.246,16.695 -209.379,-17.196 -288.346,-99.667c-11.025,-11.517 -19.712,-25.254 -29.679,-37.813c-5.358,-6.75 -4.771,-13.045 -0.066,-19.829c11.825,-17.054 24.429,-33.491 39.516,-47.779c12.004,-11.367 24.629,-22.079 37.604,-33.637c0,-3.734 -0.037,-8.296 0.005,-12.859c0.15,-15.596 12.791,-29.95 26.333,-32.504c14.079,-2.654 25.65,1.267 34.517,12.292c8.741,10.866 9.737,26.183 2.541,37.904c-7.416,12.083 -18.441,17.908 -32.691,16.487c-5.063,-0.5 -10.013,-2.17 -15.721,-3.466c-27.646,20.116 -51.459,44.162 -71.104,72.146c38.608,64.933 128.316,129.995 242.416,131.604c99.35,1.4 191.192,-50.579 234.088,-112.709c-2.179,-3.5 -5.467,-1.895 -8.329,-1.662c-30.596,2.483 -60.963,1.417 -91.15,-4.679c-40.546,-8.184 -78.196,-23.171 -112.859,-45.863c-40.516,-26.525 -73.621,-60.237 -98.687,-101.6c-35.4,-58.408 -50.617,-121.875 -45.792,-190.029c0.842,-11.854 2.288,-23.683 3.871,-35.462c1.837,-13.7 4.825,-16.717 18.383,-18.775c34.454,-5.23 68.975,-7.03 103.596,-1.475c1.5,0.241 3.071,0.029 5.142,0.029c2.958,-3.279 5.825,-6.942 9.175,-10.079c10.508,-9.85 26.354,-12.025 38.987,-5.617c13.304,6.758 20.046,20.812 17.534,36.55c-2.188,13.692 -12.446,24.633 -26.338,27.108c-13.829,2.463 -25.637,-1.529 -34.221,-13.083c-2.45,-3.3 -4.254,-7.088 -6.354,-10.65c-21.642,-7.138 -61.508,-7.508 -101.408,-0.933c-3.896,2.725 -3.875,7.116 -4.409,11.12c-6.966,52.296 -2.225,103.371 17.259,152.596c19.029,48.088 48.341,88.988 88.4,121.842c43.833,35.954 93.796,58.021 150.125,65.825c22.729,3.15 45.366,3.283 68.121,1.45c2.55,-0.204 5.075,-0.833 7.587,-1.375c0.4,-0.088 0.683,-0.746 1.058,-1.183c1.771,-3.967 -1.537,-5.388 -3.795,-7.288c-25.096,-21.05 -47.859,-44.192 -66.034,-71.675c-30.6,-46.275 -48.458,-96.821 -53.054,-152.208c-3.692,-44.509 1.308,-87.909 15.513,-130.117c18.92,-56.221 50.962,-103.779 96.441,-142.025c8.7,-7.312 18.163,-13.712 27.029,-20.833c7.746,-6.217 15.28,-5.638 22.655,0.1c12.241,9.521 25,18.546 36.225,29.171c12.741,12.062 24.058,25.629 35.937,38.595c2.438,2.655 4.629,5.538 7.433,8.921m338.03,559.592c0.279,-6.221 -4.809,-11.862 -11.284,-12.512c-5.829,-0.584 -12.05,5.087 -12.391,11.295c-0.338,6.134 4.8,11.83 11.308,12.534c5.821,0.629 12.087,-5.109 12.367,-11.317m-325.417,-514.196c6.612,-0.341 11.971,-5.775 11.717,-11.883c-0.28,-6.75 -6.95,-12.388 -13.675,-11.554c-5.417,0.671 -10.03,6.208 -9.913,11.9c0.133,6.504 5.642,11.858 11.871,11.537m267.058,197.592c6.046,-0.429 11.217,-6.625 10.571,-12.671c-0.65,-6.079 -6.696,-11.063 -12.783,-10.533c-6.421,0.558 -11.134,6.212 -10.454,12.55c0.67,6.27 6.408,11.095 12.666,10.654m-784.071,120.987c6.042,-0.016 11.867,-5.791 11.88,-11.779c0.012,-6.237 -5.434,-11.5 -11.925,-11.521c-6.205,-0.021 -12.221,5.692 -12.155,11.529c0.067,5.584 6.496,11.792 12.2,11.771m192.967,-263.804c6.171,0.029 11.908,-5.45 12.004,-11.467c0.096,-5.795 -5.858,-11.829 -11.704,-11.862c-6.6,-0.033 -11.529,4.896 -11.571,11.571c-0.041,6.887 4.6,11.729 11.271,11.758" style="fill:#afafa5;fill-rule:nonzero;"/><path d="M3131.69,2506.5c5.734,0 10.359,-0.062 14.98,0.013c16.304,0.25 30.179,14.566 31.704,30.783c1.516,16.05 -8.729,30.625 -24.45,35.408c-16.192,4.93 -32.984,-2.404 -40.234,-17.887c-3.883,-8.292 -4.291,-17.067 -1.32,-25.717c1.67,-4.87 1.35,-8.933 -1.834,-13.041c-19.758,-25.5 -41.871,-48.492 -69.012,-65.992c-68.492,41.367 -130.234,138.329 -130.538,244.638c-0.3,104.02 59.729,198.483 114.854,234.004c0.538,-2.125 1.392,-3.913 1.384,-5.7c-0.079,-13.454 -0.821,-26.925 -0.442,-40.363c1.933,-68.412 24.183,-129.721 65.638,-184.008c32.329,-42.342 72.77,-74.788 121.32,-96.817c60.68,-27.533 123.984,-35.121 189.584,-23.858c16.425,2.821 17.566,4.046 20.446,20.262c5.558,31.338 5.412,62.846 2.545,94.417c-0.37,4.088 -0.862,8.163 -1.337,12.596c3.837,3.65 7.837,6.933 11.225,10.762c14.108,15.917 9.712,47.709 -17.117,54.734c-15.712,4.112 -32.258,-3.367 -39.096,-17.704c-7.333,-15.38 -2.995,-33.205 10.592,-42.838c3.358,-2.379 7.058,-4.271 10.942,-6.587c3.283,-6.988 3.308,-14.875 3.971,-22.488c2.079,-23.808 1.316,-47.587 -2.092,-71.258c-1.296,-9.005 -2.2,-10.2 -11.504,-11.688c-26.759,-4.275 -53.738,-4.475 -80.496,-1.196c-42.604,5.221 -82.604,18.604 -119.317,41.338c-53.475,33.108 -93.129,78.104 -118.721,135.7c-20.883,47 -27.754,96.142 -24.291,147.062c0.15,2.188 1.566,4.288 2.954,7.871c4.242,-4.475 7.458,-7.687 10.471,-11.075c26.425,-29.725 57.166,-54.021 92.604,-72.012c66.925,-33.984 137.408,-44.079 211.104,-29.417c70.413,14.012 129.325,48.421 177.033,101.925c8.592,9.637 16.35,20.062 23.934,30.529c8.079,11.158 8,14.046 0.471,25.05c-15.863,23.179 -34.109,44.263 -55.742,62.283c-4.371,3.642 -8.683,7.421 -13.404,10.571c-5.75,3.838 -7.738,8.013 -6.863,15.479c1.904,16.242 -7.233,29.48 -22.221,35.184c-18.187,6.912 -38.725,-3.75 -44.104,-22.904c-5.246,-18.675 5.817,-37.767 24.459,-41.892c6.629,-1.467 13.408,-1.95 19.816,0.987c4.284,1.967 8.034,1.38 11.592,-1.379c25.492,-19.75 48.637,-41.758 66.242,-69.075c0.266,-0.408 0.262,-0.996 0.533,-2.108c-4.404,-8.354 -10.9,-15.704 -17.321,-23.088c-65.071,-74.85 -147.45,-110.291 -246.208,-105.266c-64.963,3.308 -122.804,26.8 -172.921,68.791c-21.996,18.425 -40.942,39.463 -57.008,63.184c-18.071,26.683 -38.463,51.35 -63.142,72.271c-45.675,38.712 -97.729,63.9 -157.117,72.65c-113.246,16.695 -209.379,-17.196 -288.346,-99.667c-11.025,-11.517 -19.712,-25.254 -29.679,-37.813c-5.358,-6.75 -4.771,-13.045 -0.066,-19.829c11.825,-17.054 24.429,-33.491 39.516,-47.779c12.004,-11.367 24.629,-22.079 37.604,-33.637c0,-3.734 -0.037,-8.296 0.005,-12.859c0.15,-15.596 12.791,-29.95 26.333,-32.504c14.079,-2.654 25.65,1.267 34.517,12.292c8.741,10.866 9.737,26.183 2.541,37.904c-7.416,12.083 -18.441,17.908 -32.691,16.487c-5.063,-0.5 -10.013,-2.17 -15.721,-3.466c-27.646,20.116 -51.459,44.162 -71.104,72.146c38.608,64.933 128.316,129.995 242.416,131.604c99.35,1.4 191.192,-50.579 234.088,-112.709c-2.179,-3.5 -5.467,-1.895 -8.329,-1.662c-30.596,2.483 -60.963,1.417 -91.15,-4.679c-40.546,-8.184 -78.196,-23.171 -112.859,-45.863c-40.516,-26.525 -73.621,-60.237 -98.687,-101.6c-35.4,-58.408 -50.617,-121.875 -45.792,-190.029c0.842,-11.854 2.288,-23.683 3.871,-35.462c1.837,-13.7 4.825,-16.717 18.383,-18.775c34.454,-5.23 68.975,-7.03 103.596,-1.475c1.5,0.241 3.071,0.029 5.142,0.029c2.958,-3.279 5.825,-6.942 9.175,-10.079c10.508,-9.85 26.354,-12.025 38.987,-5.617c13.304,6.758 20.046,20.812 17.534,36.55c-2.188,13.692 -12.446,24.633 -26.338,27.108c-13.829,2.463 -25.637,-1.529 -34.221,-13.083c-2.45,-3.3 -4.254,-7.088 -6.354,-10.65c-21.642,-7.138 -61.508,-7.508 -101.408,-0.933c-3.896,2.725 -3.875,7.116 -4.409,11.12c-6.966,52.296 -2.225,103.371 17.259,152.596c19.029,48.088 48.341,88.988 88.4,121.842c43.833,35.954 93.796,58.021 150.125,65.825c22.729,3.15 45.366,3.283 68.121,1.45c2.55,-0.204 5.075,-0.833 7.587,-1.375c0.4,-0.088 0.683,-0.746 1.058,-1.183c1.771,-3.967 -1.537,-5.388 -3.795,-7.288c-25.096,-21.05 -47.859,-44.192 -66.034,-71.675c-30.6,-46.275 -48.458,-96.821 -53.054,-152.208c-3.692,-44.509 1.308,-87.909 15.513,-130.117c18.92,-56.221 50.962,-103.779 96.441,-142.025c8.7,-7.312 18.163,-13.712 27.029,-20.833c7.746,-6.217 15.28,-5.638 22.655,0.1c12.241,9.521 25,18.546 36.225,29.171c12.741,12.062 24.058,25.629 35.937,38.595c2.438,2.655 4.629,5.538 7.433,8.921Zm338.03,559.592c0.279,-6.221 -4.809,-11.862 -11.284,-12.512c-5.829,-0.584 -12.05,5.087 -12.391,11.295c-0.338,6.134 4.8,11.83 11.308,12.534c5.821,0.629 12.087,-5.109 12.367,-11.317Zm-325.417,-514.196c6.612,-0.341 11.971,-5.775 11.717,-11.883c-0.28,-6.75 -6.95,-12.388 -13.675,-11.554c-5.417,0.671 -10.03,6.208 -9.913,11.9c0.133,6.504 5.642,11.858 11.871,11.537Zm267.058,197.592c6.046,-0.429 11.217,-6.625 10.571,-12.671c-0.65,-6.079 -6.696,-11.063 -12.783,-10.533c-6.421,0.558 -11.134,6.212 -10.454,12.55c0.67,6.27 6.408,11.095 12.666,10.654Zm-784.071,120.987c6.042,-0.016 11.867,-5.791 11.88,-11.779c0.012,-6.237 -5.434,-11.5 -11.925,-11.521c-6.205,-0.021 -12.221,5.692 -12.155,11.529c0.067,5.584 6.496,11.792 12.2,11.771Zm192.967,-263.804c6.171,0.029 11.908,-5.45 12.004,-11.467c0.096,-5.795 -5.858,-11.829 -11.704,-11.862c-6.6,-0.033 -11.529,4.896 -11.571,11.571c-0.041,6.887 4.6,11.729 11.271,11.758Z" style="fill:none;fill-rule:nonzero;stroke:#b1b0a4;stroke-width:7.22px;"/><path d="M3703.12,2847.53l41.479,0l-0,60.142l1.033,-0c7.259,-27.996 32.667,-63.25 85.029,-63.25c6.742,-0 14,0.517 20.221,2.592l0,35.254c-6.737,-1.034 -12.958,-1.554 -19.7,-1.554c-54.441,-0 -86.583,36.812 -86.583,94.362l-0,142.058l-41.479,0l-0,-269.604Z" style="fill:#afafa5;fill-rule:nonzero;"/><path d="M3869.02,2982.85c-0,-97.987 57.033,-140.504 125.987,-140.504c69.475,0 120.284,43.55 120.284,133.767c-0,8.812 -0.517,13.996 -1.554,19.183l-204.792,0c3.108,63.25 34.217,93.842 88.654,93.842c33.183,-0 63.254,-10.888 76.217,-47.7l37.846,-0c-17.625,59.625 -63.25,80.883 -114.58,80.883c-74.141,0 -128.062,-44.592 -128.062,-139.471m206.35,-19.183c-0.517,-56.513 -31.108,-88.658 -80.879,-88.658c-47.179,-0 -81.4,28.516 -85.546,88.658l166.425,-0Z" style="fill:#afafa5;fill-rule:nonzero;"/><path d="M4123.07,2847.53l41.996,0l87.621,230.2l1.558,0l87.1,-230.2l42.517,0l-104.733,269.604l-51.846,0l-104.213,-269.604Z" style="fill:#afafa5;fill-rule:nonzero;"/><path d="M4391.64,2982.85c0,-97.987 57.034,-140.504 125.988,-140.504c69.475,0 120.283,43.55 120.283,133.767c0,8.812 -0.517,13.996 -1.554,19.183l-204.792,0c3.109,63.25 34.217,93.842 88.659,93.842c33.179,-0 63.25,-10.888 76.212,-47.7l37.85,-0c-17.629,59.625 -63.254,80.883 -114.583,80.883c-74.142,0 -128.063,-44.592 -128.063,-139.471m206.35,-19.183c-0.516,-56.513 -31.104,-88.658 -80.879,-88.658c-47.179,-0 -81.4,28.516 -85.546,88.658l166.425,-0Z" style="fill:#afafa5;fill-rule:nonzero;"/><path d="M4802.78,2877.6c-47.7,-0 -79.325,30.071 -79.325,81.4l0,158.133l-41.479,0l0,-269.604l41.479,0l0,52.883l1.034,0c4.671,-18.145 30.591,-58.066 92.808,-58.066c53.4,-0 96.433,29.033 96.433,108.358l0,166.429l-41.475,0l0,-158.133c0,-51.329 -21.775,-81.4 -69.475,-81.4" style="fill:#afafa5;fill-rule:nonzero;"/><path d="M5079.13,3087.06c45.104,-0 76.213,-26.963 79.325,-73.625l0.521,-165.909l41.475,0l-0.521,269.604l-41.475,0l0,-52.883l-1.037,0c-4.667,18.146 -30.588,58.067 -92.805,58.067c-53.404,-0 -96.437,-29.034 -96.437,-108.359l0.521,-166.429l41.475,0l-0.517,158.134c0,51.329 21.775,81.4 69.475,81.4" style="fill:#afafa5;fill-rule:nonzero;"/><path d="M5245.03,2982.85c-0,-97.987 57.033,-140.504 125.987,-140.504c69.475,0 120.284,43.55 120.284,133.767c-0,8.812 -0.517,13.996 -1.554,19.183l-204.792,0c3.108,63.25 34.217,93.842 88.654,93.842c33.183,-0 63.254,-10.888 76.217,-47.7l37.846,-0c-17.625,59.625 -63.25,80.883 -114.58,80.883c-74.141,0 -128.062,-44.592 -128.062,-139.471m206.35,-19.183c-0.517,-56.513 -31.108,-88.658 -80.879,-88.658c-47.184,-0 -81.4,28.516 -85.546,88.658l166.425,-0Z" style="fill:#afafa5;fill-rule:nonzero;"/></svg>